<svg width="24" height="21" viewBox="0 0 24 21" fill="none" xmlns="http://www.w3.org/2000/svg">
<path fill-rule="evenodd" clip-rule="evenodd" d="M1.93041 5.39742L5.10205 0.242807C5.27221 -0.0337305 5.65939 -0.0832859 5.89032 0.141916L11.7256 5.8325L18.2761 0.567682C18.4384 0.437211 18.6666 0.418236 18.8492 0.520016L23.7331 3.24161C24.0359 3.41034 24.0772 3.82011 23.8138 4.04305L16.3607 10.3528L21.7802 15.6379C21.929 15.783 21.9691 16.0046 21.881 16.1937L20.227 19.7416C20.0886 20.0383 19.7034 20.1294 19.4481 19.9256L12.0375 14.0128L5.7837 19.3072C5.60695 19.4568 5.34805 19.4688 5.15759 19.3361L0.211996 15.8912C-0.058773 15.7025 -0.0725038 15.3148 0.184276 15.1085L6.77344 9.81261L2.04059 6.03631C1.84689 5.88175 1.79993 5.60948 1.93041 5.39742Z" fill="white"/>
</svg>
