<svg width="16" height="16" viewBox="0 0 16 16" fill="none" xmlns="http://www.w3.org/2000/svg">
<g opacity="0.5" clip-path="url(#clip0_665_2844)">
<path d="M12.6667 3.33268H11.2667C11.1119 2.58029 10.7025 1.90425 10.1075 1.41849C9.51245 0.932742 8.76814 0.666985 8 0.666016H3.33333C2.4496 0.667074 1.60237 1.0186 0.97748 1.6435C0.352588 2.26839 0.00105857 3.11562 0 3.99935L0 9.99935C0.00167587 10.5964 0.203692 11.1757 0.573691 11.6443C0.94369 12.113 1.46026 12.4439 2.04067 12.584C1.97784 12.9176 1.98858 13.261 2.07213 13.59C2.15568 13.9191 2.31002 14.2259 2.5244 14.4892C2.73877 14.7524 3.00801 14.9657 3.31333 15.1142C3.61864 15.2627 3.95267 15.3427 4.29211 15.3488C4.63155 15.3548 4.96823 15.2867 5.27864 15.1492C5.58905 15.0118 5.86572 14.8082 6.08934 14.5527C6.31296 14.2973 6.47815 13.9961 6.57337 13.6703C6.66859 13.3444 6.69156 13.0017 6.64067 12.666H9.362C9.34485 12.7763 9.33571 12.8877 9.33467 12.9994C9.33467 13.6182 9.5805 14.2117 10.0181 14.6493C10.4557 15.0869 11.0492 15.3327 11.668 15.3327C12.2868 15.3327 12.8803 15.0869 13.3179 14.6493C13.7555 14.2117 14.0013 13.6182 14.0013 12.9994C14.0006 12.8599 13.987 12.7209 13.9607 12.584C14.5408 12.4436 15.0571 12.1126 15.4268 11.644C15.7966 11.1754 15.9984 10.5963 16 9.99935V6.66602C15.9989 5.78229 15.6474 4.93505 15.0225 4.31016C14.3976 3.68527 13.5504 3.33374 12.6667 3.33268V3.33268ZM14.6667 6.66602V7.33268H11.3333V4.66602H12.6667C13.1971 4.66602 13.7058 4.87673 14.0809 5.2518C14.456 5.62688 14.6667 6.13558 14.6667 6.66602ZM1.33333 9.99935V3.99935C1.33333 3.46892 1.54405 2.96021 1.91912 2.58514C2.29419 2.21006 2.8029 1.99935 3.33333 1.99935H8C8.53043 1.99935 9.03914 2.21006 9.41421 2.58514C9.78929 2.96021 10 3.46892 10 3.99935V11.3327H2.66667C2.31304 11.3327 1.97391 11.1922 1.72386 10.9422C1.47381 10.6921 1.33333 10.353 1.33333 9.99935ZM5.33333 12.9994C5.33333 13.2646 5.22798 13.5189 5.04044 13.7065C4.8529 13.894 4.59855 13.9994 4.33333 13.9994C4.06812 13.9994 3.81376 13.894 3.62623 13.7065C3.43869 13.5189 3.33333 13.2646 3.33333 12.9994C3.33374 12.8854 3.35475 12.7725 3.39533 12.666H5.27133C5.31192 12.7725 5.33292 12.8854 5.33333 12.9994V12.9994ZM11.6667 13.9994C11.4015 13.9994 11.1471 13.894 10.9596 13.7065C10.772 13.5189 10.6667 13.2646 10.6667 12.9994C10.667 12.8854 10.688 12.7725 10.7287 12.666H12.6047C12.6454 12.7725 12.6664 12.8854 12.6667 12.9994C12.6667 13.2646 12.5613 13.5189 12.3738 13.7065C12.1862 13.894 11.9319 13.9994 11.6667 13.9994ZM13.3333 11.3327H11.3333V8.66602H14.6667V9.99935C14.6667 10.353 14.5262 10.6921 14.2761 10.9422C14.0261 11.1922 13.687 11.3327 13.3333 11.3327Z" fill="#3ba8c0"/>
<circle cx="10" cy="8" r="3.5" fill="#E5E5E5" stroke="#3ba8c0"/>
<path d="M9.24858 9.81543V6.24543H10.3886C10.8486 6.24543 11.1836 6.33876 11.3936 6.52543C11.6069 6.7121 11.7136 6.96876 11.7136 7.29543C11.7136 7.48876 11.6703 7.67043 11.5836 7.84043C11.4969 8.01043 11.3519 8.1471 11.1486 8.25043C10.9486 8.35376 10.6753 8.40543 10.3286 8.40543H10.0036V9.81543H9.24858ZM8.84858 9.28043V8.79543H10.7736V9.28043H8.84858ZM8.84858 8.40543V7.78543H10.3136V8.40543H8.84858ZM10.2536 7.78543C10.3969 7.78543 10.5203 7.77043 10.6236 7.74043C10.7269 7.7071 10.8069 7.65543 10.8636 7.58543C10.9203 7.51543 10.9486 7.4271 10.9486 7.32043C10.9486 7.1671 10.9003 7.05376 10.8036 6.98043C10.7069 6.90376 10.5553 6.86543 10.3486 6.86543H10.0036V7.78543H10.2536Z" fill="#3ba8c0"/>
<path fill-rule="evenodd" clip-rule="evenodd" d="M3.18162 9.07295C3.18162 9.3491 3.40548 9.57295 3.68162 9.57295C3.95776 9.57295 4.18162 9.3491 4.18162 9.07295V8.34544H4.96071C5.23685 8.34544 5.46071 8.12159 5.46071 7.84544C5.46071 7.5693 5.23685 7.34544 4.96071 7.34544L4.18162 7.34544V6.58594C4.18162 6.3098 3.95776 6.08594 3.68162 6.08594C3.40548 6.08594 3.18162 6.3098 3.18162 6.58594V7.34544L2.47369 7.34545C2.19755 7.34545 1.97369 7.5693 1.97369 7.84545C1.97369 8.12159 2.19755 8.34545 2.47369 8.34545H3.18162V9.07295Z" fill="#3ba8c0"/>
</g>
<defs>
<clipPath id="clip0_665_2844">
<rect width="16" height="16" fill="#3ba8c0"/>
</clipPath>
</defs>
</svg>
