<svg width="24" height="24" viewBox="0 0 24 24" fill="none" xmlns="http://www.w3.org/2000/svg">
<path d="M18.9848 6.73636C19.6626 6.74473 19.6944 6.65471 20.5944 6.71132C20.9222 6.73194 21.3687 6.63724 21.7563 6.76337C21.9029 6.81109 21.9442 6.98455 21.871 7.12022L18.2467 13.8351C18.186 13.9475 18.0608 14.0092 17.9346 13.9887L9.06457 12.5498C8.90275 12.5235 8.79196 12.3723 8.8158 12.2101L9.11813 10.1527C9.1442 9.97533 9.31901 9.86026 9.49224 9.90646L17.1877 11.9586C17.3309 11.9968 17.4806 11.9246 17.5399 11.7888L18.9233 8.62216C18.9526 8.55518 18.9044 8.48 18.8314 8.47909C18.6243 8.47654 18.393 8.4765 18.1453 8.47645C17.6226 8.47636 16.0952 8.46243 15.5 8.47645C14.5 8.5 12.5 7.5 11.5 7C10.5216 6.51078 10.3207 5.82714 10.2799 5.03184C10.2662 4.76478 10.6388 4.57425 10.8735 4.70242C12.225 5.44056 15.2818 6.65674 16.6463 6.71132C17.2005 6.73349 17.7097 6.73338 18.2062 6.73327H18.2062C18.4676 6.73322 18.7256 6.73316 18.9848 6.73636Z" fill="white"/>
<path fill-rule="evenodd" clip-rule="evenodd" d="M2.62799 1.32907C2.66495 1.15372 2.8464 1.04968 3.0164 1.10635L8.09409 2.79891C8.19483 2.83249 8.27031 2.91682 8.29256 3.02066L10.083 11.3759C10.0953 11.4334 10.0904 11.4932 10.069 11.548L8.40324 15.8066C8.33012 15.9936 8.45764 16.1982 8.65767 16.2149L17.0999 16.9197C17.1853 16.9269 17.2635 16.9701 17.3149 17.0387L18.4889 18.6039C18.6439 18.8107 18.4825 19.1036 18.2249 19.083L6.22673 18.1201C6.03711 18.1049 5.90935 17.9193 5.96283 17.7368L7.80546 11.446C7.81957 11.3978 7.82137 11.3469 7.81071 11.2979L6.45563 5.06676C6.42858 4.94238 6.32599 4.84861 6.19969 4.83282L2.32361 4.34831C2.14942 4.32654 2.03106 4.16052 2.06728 3.98875L2.62799 1.32907Z" fill="white"/>
<ellipse cx="8.41317" cy="20.7897" rx="1.10262" ry="1.65393" fill="white"/>
<ellipse cx="17.2341" cy="21.8932" rx="1.10262" ry="1.65393" fill="white"/>
</svg>
