<svg width="24" height="21" viewBox="0 0 24 21" fill="none" xmlns="http://www.w3.org/2000/svg">
<path fill-rule="evenodd" clip-rule="evenodd" d="M1.93041 5.39754L5.10205 0.242929C5.27221 -0.0336082 5.65939 -0.0831636 5.89032 0.142039L11.7256 5.83262L18.2761 0.567804C18.4384 0.437333 18.6666 0.418359 18.8492 0.520138L23.7331 3.24173C24.0359 3.41046 24.0772 3.82023 23.8138 4.04317L16.3607 10.3529L21.7802 15.638C21.929 15.7831 21.9691 16.0047 21.881 16.1938L20.227 19.7417C20.0886 20.0385 19.7034 20.1295 19.4481 19.9258L12.0375 14.0129L5.7837 19.3073C5.60695 19.457 5.34805 19.4689 5.15759 19.3363L0.211996 15.8913C-0.0587731 15.7027 -0.0725038 15.315 0.184276 15.1086L6.77344 9.81273L2.04059 6.03643C1.84689 5.88187 1.79993 5.6096 1.93041 5.39754Z" fill="#BDBDBD"/>
</svg>
