<svg width="24" height="24" viewBox="0 0 24 24" fill="none" xmlns="http://www.w3.org/2000/svg">
<path d="M22.5 0H1.5C1.10218 0 0.720644 0.140476 0.43934 0.390524C0.158035 0.640573 0 0.979711 0 1.33333V22.6667C0 23.0203 0.158035 23.3594 0.43934 23.6095C0.720644 23.8595 1.10218 24 1.5 24H11.4225V14.72H7.9155V11.0867H11.4225V8.42C11.4225 5.32 13.5525 3.63067 16.6725 3.63067C17.721 3.628 18.771 3.676 19.815 3.77333V7H17.6625C15.9705 7 15.6405 7.71733 15.6405 8.76667V11.08H19.686L19.161 14.7133H15.639V24H22.5C22.8978 24 23.2794 23.8595 23.5607 23.6095C23.842 23.3594 24 23.0203 24 22.6667V1.33333C24 0.979711 23.842 0.640573 23.5607 0.390524C23.2794 0.140476 22.8978 0 22.5 0Z" fill="#646464"/>
</svg>
