<svg width="21" height="20" viewBox="0 0 21 20" fill="none" xmlns="http://www.w3.org/2000/svg">
<path d="M10.5002 19.7502C9.8283 19.1306 9.06892 18.486 8.2658 17.8002H8.25538C5.42726 15.3952 2.22205 12.6739 0.806425 9.41307C0.341841 8.37524 0.0949664 7.24641 0.083508 6.10024C0.0819646 5.32239 0.229874 4.55205 0.518552 3.83447C0.80723 3.11689 1.23086 2.46653 1.76456 1.92157C2.29826 1.37661 2.93128 0.948049 3.62644 0.66104C4.3216 0.374031 5.06489 0.234364 5.81267 0.25024C7.04249 0.25226 8.24584 0.621911 9.27934 1.31516C9.73347 1.62171 10.1444 1.99252 10.5002 2.41691C10.8585 1.99441 11.2689 1.62391 11.722 1.31516C12.7551 0.621774 13.9582 0.252102 15.1877 0.25024C15.9355 0.234364 16.6787 0.374031 17.3739 0.66104C18.0691 0.948049 18.7021 1.37661 19.2358 1.92157C19.7695 2.46653 20.1931 3.11689 20.4818 3.83447C20.7705 4.55205 20.9184 5.32239 20.9168 6.10024C20.9062 7.24729 20.6597 8.3787 20.1939 9.41849C18.7783 12.6793 15.5741 15.3996 12.746 17.8002L12.7356 17.8089C11.9314 18.4903 11.1731 19.1349 10.5012 19.7589L10.5002 19.7502Z" fill="#E42323"/>
</svg>
