<svg width="72" height="40" viewBox="0 0 72 40" fill="none" xmlns="http://www.w3.org/2000/svg">
<path d="M1.92177 31.5086C1.92177 30.5747 1.91362 29.6617 1.93154 28.7496C1.9401 28.6788 1.96387 28.6106 2.00124 28.5496C2.03861 28.4887 2.0887 28.4365 2.14813 28.3965C2.40788 28.2434 2.46569 28.0441 2.46243 27.7614C2.44777 26.6322 2.45592 25.5022 2.45592 24.3592C1.83464 24.2029 1.15311 24.5212 0.568477 24.0401C1.16695 23.6229 1.82731 23.9299 2.45592 23.7557V23.3272C2.45212 18.8007 2.44777 14.2745 2.44289 9.74854C2.44289 9.1005 2.29388 8.91825 1.67423 8.75057C1.25652 8.63797 0.841252 8.51241 0.426797 8.38767C0.129595 8.29856 -0.00475708 8.10577 0.000128439 7.78581C0.00501396 7.46584 0.21672 7.44235 0.45611 7.3978C4.27903 6.69712 8.09544 5.96079 11.9249 5.29656C14.046 4.9288 16.1964 4.72953 18.3184 4.36582C21.6414 3.79879 24.9505 3.1459 28.2686 2.54242C32.931 1.69404 37.5947 0.85619 42.2599 0.0288692C42.6353 -0.0264096 43.0182 -0.00211747 43.3835 0.100153C48.5144 1.454 53.6418 2.81784 58.7656 4.19166C59.4081 4.36339 59.566 4.58696 59.4854 5.20907L59.097 5.29008C59.1255 5.44398 59.1442 5.58412 59.1784 5.72021C60.1816 9.92647 61.1834 14.1333 62.1838 18.3406C62.2248 18.5523 62.3158 18.7511 62.4493 18.9209C62.5829 19.0906 62.755 19.2263 62.9517 19.3167C64.9816 20.3131 66.9993 21.3353 69.0431 22.3033C69.8118 22.667 70.1741 23.1863 70.1741 24.0312C70.1741 26.0247 70.2132 28.0174 70.2352 30.0101C70.2425 30.6702 70.372 30.7917 71.0307 30.7391C72.0005 30.6654 72.0029 30.6654 71.9997 31.6301C71.9997 32.0068 71.9647 32.3843 71.9801 32.7601C71.998 33.2113 71.7359 33.3855 71.3499 33.4552C69.6978 33.7541 68.0465 34.0627 66.3895 34.3349C65.8635 34.4207 65.515 34.6273 65.2568 35.1141C63.8856 37.6973 60.2899 38.3648 58.0645 36.4507C57.857 36.2599 57.6132 36.1123 57.3476 36.0164C57.0819 35.9206 56.7997 35.8785 56.5175 35.8926C55.5558 35.9233 54.5917 35.9185 53.6293 35.8926C53.2849 35.8828 53.1155 36.0068 52.9869 36.3033C52.7996 36.735 52.5488 37.1416 52.3696 37.5766C51.759 39.0525 50.5433 39.7095 49.0597 39.9087C48.1396 40.0319 47.1951 39.9825 46.2611 39.9987C46.1112 40.0074 45.9619 39.9737 45.8304 39.9015C45.1529 39.4584 44.3696 39.1011 43.8477 38.5163C43.0065 37.5742 42.3543 36.479 42.3169 35.1311C42.3071 34.7545 42.141 34.3827 42.036 33.9639C41.4383 34.0991 40.9017 34.2247 40.3627 34.3397C40.1933 34.3762 40.0508 34.4313 39.8741 34.2393C39.721 34.0773 39.4181 33.9914 39.1739 33.9752C37.2001 33.8415 35.2255 33.7095 33.2494 33.6317C32.7644 33.6275 32.2834 33.7189 31.8342 33.9007C30.4139 34.4535 28.8715 34.6212 27.3647 34.3867C27.0301 34.3357 26.6783 34.1202 26.4227 33.8853C25.8681 33.375 25.2754 33.1166 24.4969 33.1077C23.1428 33.0923 21.7895 32.9772 20.4379 32.8841C20.0031 32.8541 19.7376 33.0104 19.6098 33.4219C19.5626 33.5759 19.4917 33.7225 19.429 33.8715C18.9608 34.9821 18.1148 35.6042 16.9162 35.7054C15.8227 35.7986 14.7251 35.8415 13.6283 35.8974C12.9199 35.9339 12.3255 35.6496 11.9591 35.0728C11.6252 34.5471 11.3834 33.9541 11.1627 33.3677C11.008 32.9554 10.9437 32.5074 10.8615 32.0716C10.7719 31.5929 10.4885 31.3191 10.0114 31.2948C8.82256 31.2356 7.63131 31.1368 6.44494 31.1741C5.09247 31.2154 3.74407 31.3879 2.39322 31.4981C2.24584 31.5175 2.09927 31.5086 1.92177 31.5086ZM2.9575 23.7841C3.11058 23.7946 3.22946 23.8092 3.34915 23.81C4.52901 23.8197 5.71049 23.8311 6.8879 23.8327C11.4179 23.8413 15.9478 23.8484 20.4778 23.8538C23.5177 23.8608 26.5554 23.8737 29.5909 23.8926C30.0656 23.8926 30.5395 23.9056 31.0142 23.9169C31.2259 23.9218 31.436 23.9404 31.4214 24.2369C31.4108 24.5002 31.2585 24.5723 31.0142 24.5609C30.6478 24.548 30.2814 24.5844 29.9158 24.5504C29.5233 24.5139 29.4362 24.6735 29.4509 25.0307C29.4769 25.6715 29.4582 26.3138 29.4582 26.9748H28.3532V24.5423H19.9713V26.5771C19.8087 26.5662 19.6454 26.5662 19.4828 26.5771C19.083 26.6354 18.969 26.4678 18.9942 26.0838C19.026 25.55 19.0024 25.0129 19.0024 24.4686C18.9086 24.4512 18.814 24.4388 18.719 24.4313C15.9115 24.4313 13.1007 24.4313 10.2964 24.4256C10.0317 24.4256 9.93646 24.5066 9.94542 24.7715C9.96252 25.264 9.9503 25.7573 9.9503 26.2555H9.16944V24.4305H4.38977V26.1494L3.56167 26.1097V24.3665C2.94447 24.3511 2.94447 24.3511 2.94447 24.8963C2.94447 26.4186 2.94447 27.9409 2.94447 29.4633C2.94447 29.959 3.05684 30.0854 3.54783 30.1389C5.55578 30.3576 7.56454 30.5649 9.57331 30.7966C9.95519 30.8412 10.1164 30.7626 10.1881 30.3551C10.3411 29.4835 10.504 28.5998 10.7662 27.7557C11.3533 25.9023 13.8213 25.3418 15.1452 26.7764C15.5714 27.246 15.8824 27.8075 16.0539 28.4167C16.3601 29.5419 16.5213 30.7067 16.7273 31.8569C16.7689 32.0902 16.7949 32.2433 17.1011 32.2571C18.5089 32.3187 19.916 32.4086 21.3238 32.4872C24.0841 32.6427 26.8447 32.7977 29.6056 32.9521C30.441 32.9983 31.2756 33.0404 32.1591 33.0874V32.5277C32.1553 24.6433 32.1509 16.7616 32.146 8.8826C32.146 8.09848 32.3512 7.86033 33.1093 7.76151C36.2002 7.36081 39.2911 6.96011 42.382 6.55941C43.0448 6.47436 43.3298 6.69064 43.469 7.34191C43.9891 9.77743 44.5132 12.2124 45.0414 14.6468C45.2514 15.6189 45.4835 16.5909 45.6635 17.5695C45.7669 18.1365 45.5771 18.4257 45.0642 18.4686C44.1473 18.5456 43.2248 18.582 42.3047 18.5877C41.8161 18.5877 41.6199 18.3787 41.5718 17.8911C41.5238 17.4034 41.5214 16.8963 41.5189 16.399C41.5048 13.7447 41.495 11.0908 41.4896 8.43708C41.4896 7.76313 41.6101 7.62704 42.2745 7.4788C42.4797 7.43425 42.6817 7.38808 42.8893 7.34272C42.8942 7.29655 42.8999 7.25037 42.9048 7.2042C42.6605 7.14588 42.4081 7.03328 42.1622 7.04219C41.7876 7.05515 41.4155 7.15722 41.0409 7.20987C40.6664 7.26252 40.528 7.44802 40.5304 7.8579C40.5508 11.1183 40.5426 14.3787 40.5418 17.6391C40.5418 18.4856 40.3187 18.7173 39.4702 18.7521C38.5624 18.7886 37.6553 18.8242 36.7474 18.8526C35.9486 18.8785 35.1482 18.9141 34.3494 18.9077C33.5661 18.9012 33.2502 18.5682 33.2143 17.789C33.2143 17.7218 33.2143 17.6545 33.2143 17.5873C33.2143 15 33.2143 12.4133 33.2143 9.82711C33.2162 9.65217 33.2279 9.47747 33.2494 9.30382C33.3047 8.82914 33.5751 8.53915 34.0457 8.46219C34.5798 8.37471 35.1172 8.30019 35.6547 8.23862C36.8655 8.09038 38.0779 7.95592 39.287 7.79877C39.5248 7.76799 39.752 7.66187 39.9849 7.58978L39.9433 7.41805C39.6404 7.43263 39.3343 7.42858 39.0338 7.46503C37.2425 7.68536 35.4584 7.92271 33.6687 8.13818C32.7909 8.24429 32.5996 8.4306 32.5776 9.3103C32.5776 9.40427 32.5776 9.49823 32.5776 9.59301C32.5947 11.478 32.6248 13.3637 32.6281 15.2487C32.6384 21.0421 32.6435 26.8355 32.6435 32.6289V33.0979C32.8357 33.1174 32.9937 33.1384 33.1516 33.1473C35.114 33.2616 37.0755 33.3685 39.0371 33.4892C39.8171 33.537 39.9238 33.4649 40.1957 32.7375C40.7234 31.3248 41.2543 29.9145 41.8137 28.5131C42.2355 27.4503 43.0619 26.842 44.166 26.6006C46.709 26.0425 49.2095 27.3005 50.2257 29.6869C50.6003 30.5649 50.8771 31.4843 51.1776 32.3932C51.2647 32.6605 51.3934 32.7439 51.6702 32.7391C52.5512 32.7213 53.4331 32.7334 54.3149 32.731C54.4175 32.731 54.5201 32.7099 54.6341 32.6978C54.6439 32.5917 54.6577 32.5131 54.6577 32.4337C54.6577 29.7265 54.6577 27.0191 54.6577 24.3114C54.6577 23.6553 54.3491 23.2325 53.762 22.953C51.8282 22.0368 49.9106 21.0899 47.9694 20.1859C47.1112 19.7882 46.6096 19.1758 46.4093 18.2604C45.3236 13.3019 44.2298 8.34528 43.1279 3.39053C42.9129 2.41849 42.6817 1.45697 42.4529 0.467101L15.4449 5.39052V5.49664C16.2005 5.78744 16.9553 6.08068 17.7134 6.36743C19.7273 7.12887 21.7412 7.88895 23.7552 8.64769C24.3341 8.8664 24.4489 9.02436 24.4587 9.63513C24.4636 9.97211 24.4432 10.3083 24.4432 10.6453C24.4432 14.2834 24.4432 17.921 24.4432 21.5581C24.4432 21.7136 24.4294 21.8692 24.4212 22.0255H9.75488V21.5549C9.75488 19.7493 9.72476 17.9437 9.76628 16.1389C9.79071 15.1013 9.52201 14.2119 8.82826 13.4318C8.35111 12.8988 7.86907 12.3561 7.48637 11.7566C6.60291 10.3731 5.31557 9.66591 3.74569 9.36539C3.4892 9.31597 3.23841 9.2374 2.95831 9.16531L2.9575 23.7841ZM43.2158 1.43024C43.228 1.57442 43.2272 1.6287 43.2386 1.67973C44.4329 7.09728 45.6271 12.5148 46.8213 17.9324C47.0281 18.8712 47.5639 19.5063 48.4498 19.9121C50.3226 20.7716 52.1693 21.678 54.0356 22.5464C54.8165 22.9101 55.1625 23.4917 55.156 24.3406C55.1357 27.0356 55.1373 29.7298 55.13 32.424V32.8962C56.3513 32.7917 57.5125 32.6961 58.6712 32.5917C59.4235 32.5244 59.509 32.4296 59.5123 31.6658C59.5221 29.524 59.5275 27.382 59.5286 25.2397C59.5286 25.1215 59.5172 25.0024 59.5074 24.8347H57.4579C56.7511 24.8347 56.6266 24.7537 56.6803 24.0417C56.7454 23.1871 56.3693 22.7262 55.6153 22.3528C53.2018 21.1547 50.8218 19.8886 48.427 18.6541C47.9295 18.3981 47.5835 18.0352 47.4548 17.4812C46.7361 14.3852 46.016 11.2898 45.2946 8.19488C45.1212 7.44721 45.3255 7.22283 46.0738 7.35811C48.1404 7.72749 50.2054 8.11307 52.2711 8.49216C52.7654 8.58127 53.0626 8.85263 53.1839 9.34352C53.9021 12.2597 54.63 15.1758 55.3482 18.096C55.511 18.7537 55.3856 18.9166 54.7066 18.8915C53.3793 18.842 52.0521 18.7659 50.7249 18.7051C50.47 18.693 50.2143 18.7051 49.9586 18.7051C50.0018 18.8103 50.0816 18.8966 50.1834 18.9482C51.3469 19.5857 52.5064 20.2313 53.6773 20.855C54.4419 21.26 55.2342 21.6189 55.9972 22.0295C56.7186 22.4176 57.234 22.9757 57.1656 23.8586C57.1355 24.2466 57.2682 24.3309 57.6346 24.3292C60.9983 24.3171 64.362 24.322 67.7257 24.322C67.7663 24.3191 67.8071 24.3191 67.8478 24.322C68.1344 24.3649 68.224 24.2126 68.2476 23.9566C68.2907 23.4973 68.1018 23.1839 67.5726 22.9198C65.9367 22.1041 64.2773 21.3321 62.6667 20.4702C60.9038 19.5265 59.1076 18.8202 57.0484 19.03C56.4947 19.0859 55.9735 18.6582 55.8449 18.1389C55.1506 15.3254 54.4604 12.5113 53.7742 9.69669C53.6244 9.07782 53.8386 8.8421 54.4655 8.9466C55.4679 9.11427 56.4645 9.31111 57.4644 9.49418C58.1647 9.62217 58.8658 9.74854 59.6287 9.88705C59.5921 9.67968 59.5717 9.53712 59.5408 9.40103C59.2965 8.28236 59.0034 7.1718 58.8079 6.04422C58.6826 5.32086 58.3145 5.00089 57.6126 4.8397C54.2603 4.07016 50.9178 3.2585 47.5721 2.46466C46.1406 2.11391 44.7067 1.78018 43.2158 1.43024ZM11.3581 17.5346C11.5723 17.5346 11.7465 17.5435 11.9192 17.5346C15.6517 17.31 19.3842 17.0843 23.1168 16.8574C23.6868 16.8226 23.6868 16.8226 23.6982 16.2467C23.7 16.1383 23.7084 16.0301 23.7234 15.9227C24.0125 13.9494 23.4205 12.2613 22.0745 10.8024C21.7326 10.4322 21.3572 10.2767 20.8532 10.3366C17.8133 10.6968 14.7734 11.0478 11.7335 11.3897C11.4339 11.4229 11.3264 11.5258 11.3305 11.8392C11.3459 13.6027 11.337 15.3662 11.3386 17.1304C11.3329 17.26 11.3484 17.3905 11.3581 17.5346ZM1.95434 8.15114L1.96166 8.26373C2.04327 8.3049 2.12729 8.34115 2.21327 8.37228C4.79201 9.1564 7.36994 9.94214 9.95275 10.7125C10.2009 10.7765 10.4591 10.7922 10.7133 10.7587C13.4627 10.4589 16.2111 10.1517 18.9584 9.83683C19.6798 9.75583 20.3988 9.65376 21.1398 9.55899C20.6016 8.68252 19.9591 8.09038 19.1041 7.77204C17.5299 7.18827 15.9489 6.62448 14.3611 6.08068C14.1043 5.9995 13.8314 5.98253 13.5664 6.03126C10.2073 6.62907 6.84881 7.23714 3.49083 7.85547C2.97867 7.9462 2.46894 8.0515 1.95434 8.15114ZM49.6101 14.7862H49.5605C49.5605 15.823 49.5727 16.8607 49.554 17.8975C49.5483 18.2216 49.6582 18.3163 49.9709 18.3171C50.4716 18.3171 50.9724 18.3633 51.4732 18.3868C52.3216 18.4265 52.5553 18.2248 52.5602 17.3783C52.5724 15.3443 52.5602 13.3103 52.5708 11.2763C52.5708 10.9774 52.456 10.9126 52.1873 10.919C51.6173 10.9336 51.0473 10.919 50.4773 10.9239C49.8121 10.9239 49.6215 11.0964 49.6126 11.7566C49.6036 12.7659 49.6134 13.7761 49.6134 14.7862H49.6101ZM61.4168 18.8364C61.4352 18.7601 61.4463 18.6822 61.4502 18.6039C60.7793 16.0398 60.1048 13.4771 59.4268 10.9158C59.4032 10.8251 59.2794 10.7011 59.1972 10.6963C58.7827 10.6736 58.3666 10.6866 57.9758 10.6866C57.9367 10.7538 57.9123 10.7765 57.9123 10.8C57.887 12.5326 57.8496 14.2653 57.8455 15.998C57.8455 16.9879 58.2266 17.8198 59.1841 18.2094C59.8909 18.4937 60.6539 18.629 61.4233 18.8356L61.4168 18.8364ZM48.3521 34.5058C48.3521 33.6893 48.0948 32.9602 47.6128 32.4232C47.0803 31.8294 46.2961 31.5848 45.683 31.9371C45.315 32.1461 44.9428 32.4774 44.7588 32.8452C44.5105 33.3434 44.2703 33.9509 44.3379 34.4726C44.4193 35.0963 44.7556 35.7233 45.1057 36.2709C45.6977 37.1984 46.8449 37.2567 47.6063 36.4588C48.1225 35.9112 48.3513 35.2478 48.3521 34.5058ZM68.3372 25.5022C68.452 25.4852 68.5456 25.4722 68.6384 25.4568C68.8534 25.4212 69.0211 25.3086 68.9397 25.0826C68.9031 24.9797 68.7199 24.8809 68.5936 24.8687C68.2859 24.838 67.9699 24.8793 67.6613 24.8525C67.3079 24.8218 67.1956 24.9392 67.1988 25.3005C67.2168 27.2114 67.207 29.1214 67.2078 31.0323C67.2078 31.1611 67.2233 31.2899 67.233 31.4479L68.9674 31.2122V29.2543C68.8485 29.3199 68.772 29.3653 68.693 29.4058C68.3722 29.5678 68.1629 29.5095 68.0619 29.1757C67.8817 28.5927 67.884 27.9689 68.0685 27.3871C68.1499 27.1223 68.3355 27.0275 68.6059 27.115C68.706 27.1474 68.8054 27.1846 68.9242 27.226V26.3001C68.2281 26.0951 68.2281 26.0951 68.3372 25.5022ZM54.354 10.7959C54.8873 12.9968 55.4052 15.1345 55.9239 17.2722L56.0721 17.2552C56.081 17.1183 56.0981 16.9806 56.0989 16.8437C56.0989 15.9972 56.0989 15.1499 56.0989 14.3026C56.0989 13.2495 56.1054 12.2054 56.09 11.1564C56.09 11.0357 55.9727 10.817 55.8986 10.8121C55.4044 10.7813 54.9069 10.7959 54.354 10.7959ZM12.1219 31.4932C12.1602 32.1226 12.2636 32.7294 12.7082 33.2186C13.0469 33.5912 13.4736 33.6844 13.8359 33.4803C14.1983 33.2761 14.8749 31.9072 14.7503 31.5313C14.5842 31.0051 14.3689 30.4955 14.1071 30.0092C13.7594 29.3863 13.156 29.3531 12.6683 29.8829C12.2506 30.3381 12.1586 30.9076 12.1219 31.4932ZM53.1171 11.0414C53.0836 11.0487 53.0509 11.0593 53.0194 11.073C53.0105 13.064 53.0015 15.0559 53.004 17.0478C53.004 17.1223 53.1098 17.2608 53.1668 17.2625C53.6342 17.2811 54.1024 17.273 54.6325 17.273C54.1187 15.1507 53.6179 13.0981 53.1171 11.0414ZM69.5765 31.0493L69.7303 31.0453C69.7529 30.8953 69.7671 30.7441 69.7727 30.5925C69.7328 28.3584 69.6831 26.1243 69.6481 23.8902C69.64 23.4042 69.4315 23.0802 68.9967 22.8639C66.6948 21.7161 64.3986 20.5585 62.0943 19.4156C61.8549 19.2973 61.5772 19.2535 61.3175 19.1725L61.2613 19.2997C61.3962 19.3932 61.5359 19.4798 61.6798 19.5589C63.7198 20.5655 65.7609 21.5692 67.803 22.5698C68.3608 22.842 68.7093 23.2235 68.6987 23.8845C68.6987 24.0279 68.8436 24.2547 68.9747 24.3041C69.3281 24.4386 69.4454 24.6678 69.4486 25.0154C69.4654 26.8185 69.4872 28.6222 69.5138 30.4264C69.5211 30.6362 69.5561 30.8428 69.5765 31.0493ZM9.57005 13.9859L9.73778 13.8992C9.73778 13.1701 9.73127 12.4411 9.73778 11.7072C9.74267 11.3565 9.57982 11.1572 9.24923 11.0592C8.70531 10.8972 8.16628 10.7238 7.62073 10.578C7.4709 10.5375 7.29502 10.578 7.13217 10.5861C7.18347 10.7425 7.1965 10.928 7.29502 11.0503C7.99773 11.9527 8.71834 12.8413 9.43 13.7364C9.48371 13.8154 9.53057 13.8989 9.57005 13.9859ZM10.5944 18.7999C10.5944 18.8534 10.5993 18.906 10.6025 18.9619L23.7519 18.467C23.6346 18.3212 23.5947 18.2297 23.5581 18.2313C19.2371 18.4149 14.9159 18.6044 10.5944 18.7999ZM23.5646 12.3917L23.6517 12.3585V10.0645L21.985 10.2532L23.5646 12.3917ZM10.7556 11.5436L10.5927 11.4917C10.5016 11.6878 10.3395 11.8806 10.3322 12.0798C10.3021 12.8712 10.2939 13.6659 10.3322 14.4557C10.346 14.7303 10.5252 14.9952 10.6294 15.2657L10.7491 15.222L10.7556 11.5436ZM60.0367 26.4281L60.044 26.6079L66.5393 26.3754C66.5393 26.3082 66.5336 26.2401 66.5311 26.1729L60.0367 26.4281ZM59.9349 28.3851L59.9585 28.6216L66.4253 28.1308C66.4253 28.0814 66.418 28.0311 66.4139 27.9809L59.9349 28.3851ZM23.1526 9.18718L20.867 8.37714C21.1512 9.54684 22.103 9.88057 23.1526 9.18556V9.18718ZM60.0106 29.0785C60.0171 29.1385 60.0236 29.1992 60.0293 29.2592C62.1928 29.0971 64.3579 28.9432 66.5181 28.7472L66.5026 28.5666L60.0106 29.0785ZM66.4921 30.5082L66.4717 30.3406L60.0204 31.055L60.044 31.2527L66.4921 30.5082ZM66.453 29.9129C65.988 29.7209 60.2182 30.3333 60.0358 30.6062L66.453 29.9129ZM66.3968 29.3458C65.6697 29.1555 60.1523 29.6812 59.9438 29.9444L66.3968 29.3458ZM60.0106 27.733L60.0179 27.9258L66.4408 27.5475C66.4408 27.4949 66.4342 27.4422 66.4318 27.3855L60.0106 27.733ZM60.0269 27.0639L60.0399 27.281L66.3431 26.957C66.3431 26.9133 66.3382 26.8687 66.3365 26.825L60.0269 27.0639ZM10.3574 17.6148L10.4503 17.6902C10.5691 17.5841 10.7808 17.4852 10.7906 17.3702C10.8309 16.9326 10.826 16.4921 10.776 16.0555C10.7507 15.8554 10.5626 15.6748 10.4503 15.4885L10.3591 15.5395L10.3574 17.6148ZM63.3051 25.8521L63.31 25.8319H60.031C60.031 25.8821 60.031 25.9315 60.0367 25.9817L63.3051 25.8521ZM47.1641 38.479H45.3345C45.9452 38.7771 46.5559 38.8978 47.1641 38.479ZM45.0682 1.41728C45.0528 1.25527 45.0967 1.00254 45.0121 0.948264C44.8427 0.838099 44.6049 0.833239 44.3875 0.786256C44.3208 1.31278 44.4315 1.4108 45.0682 1.41728ZM49.751 32.8549L50.571 32.9076L50.2957 32.1567L49.751 32.8549ZM50.5913 33.3053L49.9847 33.8577L50.8429 34.1818L50.5913 33.3053ZM50.2835 31.8424L49.7535 31.1943C49.6427 31.4414 49.558 31.6277 49.4603 31.8424H50.2835Z" fill="#3BA8C0"/>
<path d="M25.8552 8.30264L29.7717 7.82715V23.3362H25.8552V8.30264Z" fill="#3BA8C0"/>
<path d="M51.9341 25.3721H53.2011C53.2361 25.7034 53.2394 25.9537 52.8246 25.999C52.2078 26.0655 52.0775 25.9999 51.9341 25.3721Z" fill="#3BA8C0"/>
<path d="M41.3643 3.12759C41.4294 2.8546 41.4262 2.57433 41.5199 2.53707C41.7439 2.44958 42.0145 2.46497 42.2654 2.4674C42.3094 2.4674 42.3998 2.61969 42.3835 2.67801C42.3542 2.78008 42.2768 2.91536 42.188 2.94614C41.9607 3.02471 41.7179 3.05387 41.3643 3.12759Z" fill="#3BA8C0"/>
<path d="M56.2473 29.2582C56.3678 28.8248 56.4223 28.4295 56.5852 28.0852C56.8294 27.566 57.3058 27.5676 57.6201 28.0463C57.9922 28.6134 57.9588 29.7361 57.5533 30.2796C57.2968 30.6247 56.9149 30.6636 56.6821 30.3015C56.4785 29.9856 56.3849 29.6 56.2473 29.2582Z" fill="#3BA8C0"/>
<path d="M57.9041 26.8098C57.5497 26.8098 57.2409 26.8195 56.9345 26.8025C56.8938 26.7913 56.8568 26.7698 56.8269 26.7401C56.7971 26.7105 56.7755 26.6736 56.7642 26.6332C56.7691 26.3853 56.7447 25.9592 56.8457 25.9244C57.1358 25.8248 57.4812 25.8726 57.8031 25.8912C57.8422 25.8912 57.8927 26.067 57.9 26.1642C57.9147 26.3643 57.9041 26.5668 57.9041 26.8098Z" fill="#3BA8C0"/>
<path d="M46.9533 32.3791C45.9925 32.8109 45.7849 33.4792 46.012 34.3305C46.0263 34.3954 46.0263 34.4625 46.012 34.5273C45.8435 35.3925 46.012 35.7772 46.7742 36.2503L46.99 36.3856C46.5633 36.6075 46.1871 36.5921 45.8166 36.3856C44.5716 35.6978 44.4047 33.3828 45.5365 32.5152C45.9331 32.2122 46.3711 32.1831 46.9533 32.3791Z" fill="#3BA8C0"/>
<path d="M13.6569 33.1941C13.1501 33.2273 12.8087 33.0394 12.6253 32.636C12.4711 32.3053 12.3876 31.9463 12.38 31.5819C12.3724 31.2174 12.441 30.8553 12.5813 30.5186C12.7484 30.0965 13.0604 29.9321 13.5876 29.9418C12.8869 31.0337 12.9073 32.1135 13.6569 33.1941Z" fill="#3BA8C0"/>
</svg>
