<svg width="24" height="24" viewBox="0 0 24 24" fill="none" xmlns="http://www.w3.org/2000/svg">
<path d="M12 21.0001C11.355 20.4281 10.626 19.8331 9.85501 19.2001H9.84501C7.13001 16.9801 4.05301 14.4681 2.69401 11.4581C2.24801 10.5001 2.01101 9.45815 2.00001 8.40015C1.99853 7.68213 2.14052 6.97105 2.41765 6.30867C2.69478 5.64629 3.10147 5.04595 3.61382 4.54291C4.12617 4.03988 4.73387 3.64428 5.40122 3.37935C6.06858 3.11441 6.78214 2.98549 7.50001 3.00015C8.68064 3.00201 9.83585 3.34323 10.828 3.98315C11.264 4.26612 11.6584 4.6084 12 5.00015C12.344 4.61015 12.738 4.26815 13.173 3.98315C14.1647 3.3431 15.3197 3.00186 16.5 3.00015C17.2179 2.98549 17.9314 3.11441 18.5988 3.37935C19.2662 3.64428 19.8739 4.03988 20.3862 4.54291C20.8986 5.04595 21.3052 5.64629 21.5824 6.30867C21.8595 6.97105 22.0015 7.68213 22 8.40015C21.9898 9.45896 21.7532 10.5033 21.306 11.4631C19.947 14.4731 16.871 16.9841 14.156 19.2001L14.146 19.2081C13.374 19.8371 12.646 20.4321 12.001 21.0081L12 21.0001ZM7.50001 5.00015C6.56852 4.98849 5.67008 5.34499 5.00001 5.99215C4.68047 6.30603 4.42728 6.68094 4.25549 7.0946C4.0837 7.50827 3.99682 7.95224 4.00001 8.40015C4.01101 9.17015 4.18601 9.93015 4.51201 10.6281C5.15354 11.9268 6.01914 13.1022 7.06901 14.1001C8.06001 15.1001 9.20001 16.0681 10.186 16.8821C10.459 17.1071 10.737 17.3341 11.015 17.5611L11.19 17.7041C11.457 17.9221 11.733 18.1481 12 18.3701L12.013 18.3581L12.019 18.3531H12.025L12.034 18.3461H12.044L12.062 18.3311L12.103 18.2981L12.11 18.2921L12.121 18.2841H12.127L12.136 18.2761L12.8 17.7311L12.974 17.5881C13.255 17.3591 13.533 17.1321 13.806 16.9071C14.792 16.0931 15.933 15.1261 16.924 14.1211C17.9741 13.1237 18.8397 11.9487 19.481 10.6501C19.813 9.94615 19.991 9.17815 20.001 8.40015C20.0029 7.95352 19.9154 7.51104 19.7434 7.09883C19.5715 6.68662 19.3187 6.31304 19 6.00015C18.3312 5.35007 17.4326 4.99063 16.5 5.00015C15.9373 4.99536 15.38 5.10971 14.8647 5.33566C14.3494 5.56161 13.8877 5.89405 13.51 6.31115L12 8.05115L10.49 6.31115C10.1123 5.89405 9.65064 5.56161 9.13531 5.33566C8.61999 5.10971 8.06268 4.99536 7.50001 5.00015Z" fill="white"/>
</svg>
