<svg width="16" height="17" viewBox="0 0 16 17" fill="none" xmlns="http://www.w3.org/2000/svg">
<g clip-path="url(#clip0_165_2041)">
<path d="M16 7.16672C16 7.11806 15.9947 7.06954 15.984 7.02206L15.1173 3.11006C14.9563 2.36755 14.5449 1.70298 13.9521 1.22778C13.3593 0.752577 12.6211 0.495642 11.8613 0.500056H4.13867C3.37937 0.496256 2.64182 0.75347 2.04955 1.22862C1.45728 1.70377 1.04626 2.368 0.885334 3.11006L0.0160009 7.02206C0.00533965 7.06954 -2.64399e-05 7.11806 9.12932e-07 7.16672V7.83339C-0.000536959 8.48245 0.236615 9.10925 0.666668 9.59539V13.1667C0.667726 14.0505 1.01926 14.8977 1.64415 15.5226C2.26904 16.1475 3.11627 16.499 4 16.5001H12C12.8837 16.499 13.731 16.1475 14.3559 15.5226C14.9807 14.8977 15.3323 14.0505 15.3333 13.1667V9.59539C15.7634 9.10925 16.0005 8.48245 16 7.83339V7.16672ZM1.33333 7.23939L2.18667 3.39939C2.28336 2.95422 2.53001 2.55577 2.88534 2.27071C3.24067 1.98564 3.68313 1.83126 4.13867 1.83339H4.66667V3.83339C4.66667 4.0102 4.73691 4.17977 4.86193 4.30479C4.98695 4.42982 5.15652 4.50006 5.33333 4.50006C5.51015 4.50006 5.67971 4.42982 5.80474 4.30479C5.92976 4.17977 6 4.0102 6 3.83339V1.83339H10V3.83339C10 4.0102 10.0702 4.17977 10.1953 4.30479C10.3203 4.42982 10.4899 4.50006 10.6667 4.50006C10.8435 4.50006 11.013 4.42982 11.1381 4.30479C11.2631 4.17977 11.3333 4.0102 11.3333 3.83339V1.83339H11.8613C12.3169 1.83126 12.7593 1.98564 13.1147 2.27071C13.47 2.55577 13.7166 2.95422 13.8133 3.39939L14.6667 7.23939V7.83339C14.6667 8.18701 14.5262 8.52615 14.2761 8.7762C14.0261 9.02625 13.687 9.16672 13.3333 9.16672H12.6667C12.313 9.16672 11.9739 9.02625 11.7239 8.7762C11.4738 8.52615 11.3333 8.18701 11.3333 7.83339C11.3333 7.65658 11.2631 7.48701 11.1381 7.36199C11.013 7.23696 10.8435 7.16672 10.6667 7.16672C10.4899 7.16672 10.3203 7.23696 10.1953 7.36199C10.0702 7.48701 10 7.65658 10 7.83339C10 8.18701 9.85952 8.52615 9.60948 8.7762C9.35943 9.02625 9.02029 9.16672 8.66667 9.16672H7.33333C6.97971 9.16672 6.64057 9.02625 6.39053 8.7762C6.14048 8.52615 6 8.18701 6 7.83339C6 7.65658 5.92976 7.48701 5.80474 7.36199C5.67971 7.23696 5.51015 7.16672 5.33333 7.16672C5.15652 7.16672 4.98695 7.23696 4.86193 7.36199C4.73691 7.48701 4.66667 7.65658 4.66667 7.83339C4.66667 8.18701 4.52619 8.52615 4.27614 8.7762C4.0261 9.02625 3.68696 9.16672 3.33333 9.16672H2.66667C2.31305 9.16672 1.97391 9.02625 1.72386 8.7762C1.47381 8.52615 1.33333 8.18701 1.33333 7.83339V7.23939ZM12 15.1667H4C3.46957 15.1667 2.96086 14.956 2.58579 14.5809C2.21071 14.2059 2 13.6972 2 13.1667V10.4154C2.21773 10.4718 2.44175 10.5002 2.66667 10.5001H3.33333C3.71188 10.5003 4.0861 10.4197 4.431 10.2636C4.7759 10.1076 5.08353 9.87981 5.33333 9.59539C5.58313 9.87981 5.89076 10.1076 6.23566 10.2636C6.58056 10.4197 6.95479 10.5003 7.33333 10.5001H8.66667C9.04521 10.5003 9.41944 10.4197 9.76434 10.2636C10.1092 10.1076 10.4169 9.87981 10.6667 9.59539C10.9165 9.87981 11.2241 10.1076 11.569 10.2636C11.9139 10.4197 12.2881 10.5003 12.6667 10.5001H13.3333C13.5582 10.5002 13.7823 10.4718 14 10.4154V13.1667C14 13.6972 13.7893 14.2059 13.4142 14.5809C13.0391 14.956 12.5304 15.1667 12 15.1667Z" fill="#646464"/>
</g>
<defs>
<clipPath id="clip0_165_2041">
<rect width="16" height="16" fill="white" transform="translate(0 0.5)"/>
</clipPath>
</defs>
</svg>
