<svg width="16" height="17" viewBox="0 0 16 17" fill="none" xmlns="http://www.w3.org/2000/svg">
<g clip-path="url(#clip0_165_2030)">
<path d="M7.99992 1.16667V5.16667C7.99895 5.9348 7.73319 6.67912 7.24744 7.27417C6.76169 7.86921 6.08564 8.2786 5.33325 8.43333V15.8333C5.33325 16.0101 5.26301 16.1797 5.13799 16.3047C5.01297 16.4298 4.8434 16.5 4.66659 16.5C4.48977 16.5 4.32021 16.4298 4.19518 16.3047C4.07016 16.1797 3.99992 16.0101 3.99992 15.8333V8.43333C3.24753 8.2786 2.57148 7.86921 2.08573 7.27417C1.59998 6.67912 1.33422 5.9348 1.33325 5.16667V1.16667C1.33325 0.989856 1.40349 0.820286 1.52851 0.695262C1.65354 0.570238 1.82311 0.5 1.99992 0.5C2.17673 0.5 2.3463 0.570238 2.47132 0.695262C2.59635 0.820286 2.66659 0.989856 2.66659 1.16667V5.16667C2.66829 5.57884 2.79731 5.98042 3.03598 6.31647C3.27465 6.65251 3.61131 6.90661 3.99992 7.044V1.16667C3.99992 0.989856 4.07016 0.820286 4.19518 0.695262C4.32021 0.570238 4.48977 0.5 4.66659 0.5C4.8434 0.5 5.01297 0.570238 5.13799 0.695262C5.26301 0.820286 5.33325 0.989856 5.33325 1.16667V7.044C5.72186 6.90661 6.05852 6.65251 6.29719 6.31647C6.53586 5.98042 6.66488 5.57884 6.66659 5.16667V1.16667C6.66659 0.989856 6.73682 0.820286 6.86185 0.695262C6.98687 0.570238 7.15644 0.5 7.33325 0.5C7.51006 0.5 7.67963 0.570238 7.80466 0.695262C7.92968 0.820286 7.99992 0.989856 7.99992 1.16667V1.16667ZM14.6666 7.16667C14.6368 8.43363 14.3216 9.67755 13.7444 10.8058C13.1673 11.9341 12.3431 12.9177 11.3333 13.6833V15.8333C11.3333 16.0101 11.263 16.1797 11.138 16.3047C11.013 16.4298 10.8434 16.5 10.6666 16.5C10.4898 16.5 10.3202 16.4298 10.1952 16.3047C10.0702 16.1797 9.99992 16.0101 9.99992 15.8333V1.83333C9.99394 1.58284 10.0624 1.3362 10.1966 1.12462C10.3308 0.913034 10.5248 0.746007 10.7539 0.644667C11.0171 0.537577 11.3059 0.509487 11.5848 0.563829C11.8637 0.618172 12.1208 0.752594 12.3246 0.950667C13.8708 2.6473 14.7088 4.87153 14.6666 7.16667V7.16667ZM13.3333 7.16667C13.3522 5.21477 12.6385 3.32672 11.3333 1.87533V11.88C12.5826 10.6255 13.2992 8.93687 13.3333 7.16667Z" fill="#646464"/>
</g>
<defs>
<clipPath id="clip0_165_2030">
<rect width="16" height="16" fill="white" transform="translate(0 0.5)"/>
</clipPath>
</defs>
</svg>
