<svg width="16" height="17" viewBox="0 0 16 17" fill="none" xmlns="http://www.w3.org/2000/svg">
<g clip-path="url(#clip0_165_2028)">
<path d="M16.0001 9.83733C15.9993 9.55773 15.9395 9.28144 15.8246 9.02653C15.7097 8.77161 15.5423 8.54381 15.3334 8.358V7.16667C15.3314 5.39915 14.6284 3.70459 13.3786 2.45477C12.1288 1.20494 10.4342 0.501941 8.66672 0.5L7.33339 0.5C5.56588 0.501941 3.87131 1.20494 2.62149 2.45477C1.37167 3.70459 0.668665 5.39915 0.666724 7.16667V8.39133C0.459567 8.58683 0.294528 8.82257 0.181727 9.08412C0.0689267 9.34567 0.0107422 9.6275 0.0107422 9.91233C0.0107422 10.1972 0.0689267 10.479 0.181727 10.7405C0.294528 11.0021 0.459567 11.2378 0.666724 11.4333V11.8333C0.668136 13.0706 1.16025 14.2567 2.03512 15.1316C2.90998 16.0065 4.09615 16.4986 5.33339 16.5H10.6667C11.904 16.4986 13.0901 16.0065 13.965 15.1316C14.8399 14.2567 15.332 13.0706 15.3334 11.8333V11.3173C15.5424 11.1315 15.7098 10.9035 15.8247 10.6485C15.9396 10.3935 15.9993 10.117 16.0001 9.83733ZM1.87472 10.6053C1.7085 10.5549 1.56557 10.4471 1.47139 10.3011C1.37722 10.1552 1.33792 9.98053 1.36048 9.8083C1.38305 9.63606 1.46603 9.47743 1.59463 9.36066C1.72324 9.24389 1.88912 9.17656 2.06272 9.17067H14.0001C14.1769 9.17067 14.3464 9.2409 14.4715 9.36593C14.5965 9.49095 14.6667 9.66052 14.6667 9.83733C14.6667 10.0141 14.5965 10.1837 14.4715 10.3087C14.3464 10.4338 14.1769 10.504 14.0001 10.504H11.3334C10.0294 10.504 8.68072 11.0293 7.09072 12.158C6.7706 12.3803 6.39015 12.4995 6.00039 12.4995C5.61063 12.4995 5.23018 12.3803 4.91006 12.158C4.75806 12.05 4.61206 11.9373 4.46539 11.8247C3.73916 11.1744 2.83868 10.7505 1.87472 10.6053ZM2.00006 7.16667C2.00165 5.75267 2.56406 4.39703 3.56391 3.39718C4.56376 2.39733 5.91939 1.83492 7.33339 1.83333H8.66672C10.0807 1.83492 11.4364 2.39733 12.4362 3.39718C13.4361 4.39703 13.9985 5.75267 14.0001 7.16667V7.83733L2.00006 7.844V7.16667ZM10.6667 15.1667H5.33339C4.47951 15.1644 3.65915 14.8341 3.04187 14.2442C2.42459 13.6542 2.05759 12.8496 2.01672 11.9967C2.62183 12.1643 3.18114 12.4668 3.65272 12.8813C3.81206 13.0047 3.97206 13.1273 4.13872 13.2453C4.68517 13.625 5.33465 13.8285 6.00006 13.8285C6.66546 13.8285 7.31495 13.625 7.86139 13.2453C8.84773 12.4324 10.0594 11.941 11.3334 11.8373H14.0001C13.999 12.7207 13.6473 13.5675 13.0223 14.1918C12.3973 14.816 11.5501 15.1667 10.6667 15.1667ZM6.00006 3.83333C6.00006 3.65652 6.0703 3.48695 6.19532 3.36193C6.32034 3.2369 6.48991 3.16667 6.66672 3.16667C6.84353 3.16667 7.0131 3.2369 7.13813 3.36193C7.26315 3.48695 7.33339 3.65652 7.33339 3.83333C7.33339 4.01014 7.26315 4.17971 7.13813 4.30474C7.0131 4.42976 6.84353 4.5 6.66672 4.5C6.48991 4.5 6.32034 4.42976 6.19532 4.30474C6.0703 4.17971 6.00006 4.01014 6.00006 3.83333ZM4.00006 5.83333C4.00006 5.65652 4.0703 5.48695 4.19532 5.36193C4.32034 5.2369 4.48991 5.16667 4.66672 5.16667C4.84353 5.16667 5.0131 5.2369 5.13813 5.36193C5.26315 5.48695 5.33339 5.65652 5.33339 5.83333C5.33339 6.01014 5.26315 6.17971 5.13813 6.30474C5.0131 6.42976 4.84353 6.5 4.66672 6.5C4.48991 6.5 4.32034 6.42976 4.19532 6.30474C4.0703 6.17971 4.00006 6.01014 4.00006 5.83333Z" fill="#646464"/>
</g>
<defs>
<clipPath id="clip0_165_2028">
<rect width="16" height="16" fill="white" transform="translate(0 0.5)"/>
</clipPath>
</defs>
</svg>
