<svg width="16" height="17" viewBox="0 0 16 17" fill="none" xmlns="http://www.w3.org/2000/svg">
<g clip-path="url(#clip0_165_1965)">
<path d="M14.0813 9.1659C14.59 9.16537 15.0777 8.96306 15.4375 8.60335C15.7972 8.24365 15.9995 7.75593 16 7.24723C15.9993 6.70951 15.8718 6.17954 15.6278 5.70034C15.3839 5.22113 15.0304 4.80621 14.596 4.48923L10.006 1.1519C9.42371 0.726395 8.72119 0.49707 8 0.49707C7.27881 0.49707 6.57629 0.726395 5.994 1.1519L1.404 4.48923C0.969635 4.80621 0.616132 5.22113 0.372187 5.70034C0.128241 6.17954 0.000728883 6.70951 0 7.24723C0.000529436 7.75593 0.202844 8.24365 0.562549 8.60335C0.922254 8.96306 1.40997 9.16537 1.91867 9.1659H7.33333V15.8326C7.33333 16.0094 7.40357 16.1789 7.5286 16.304C7.65362 16.429 7.82319 16.4992 8 16.4992C8.17681 16.4992 8.34638 16.429 8.47141 16.304C8.59643 16.1789 8.66667 16.0094 8.66667 15.8326V9.1659H14.0813ZM10.3333 5.88257C10.5513 6.21018 10.6673 6.59506 10.6667 6.98857V7.83257H8.66667V3.37457L10.3333 5.88257ZM13.812 5.5659C14.0767 5.75914 14.2921 6.01212 14.4406 6.30427C14.5891 6.59643 14.6665 6.9195 14.6667 7.24723C14.6665 7.40242 14.6048 7.5512 14.495 7.66093C14.3853 7.77066 14.2365 7.83239 14.0813 7.83257H12V6.98857C12.0006 6.33241 11.8069 5.69077 11.4433 5.14457L9.77667 2.63123L13.812 5.5659ZM1.33333 7.24723C1.33346 6.9195 1.41092 6.59643 1.55943 6.30427C1.70794 6.01212 1.9233 5.75914 2.188 5.5659L6.226 2.63257L4.55933 5.1459C4.19505 5.69143 4.00043 6.33259 4 6.98857V7.83257H1.91867C1.76348 7.83239 1.6147 7.77066 1.50497 7.66093C1.39524 7.5512 1.33351 7.40242 1.33333 7.24723ZM5.33333 7.83257V6.98857C5.33269 6.59506 5.44868 6.21018 5.66667 5.88257L7.33333 3.37457V7.83257H5.33333Z" fill="#646464"/>
<path d="M2.66667 13.1667H1.33333V11.1667C1.33333 10.9899 1.2631 10.8203 1.13807 10.6953C1.01305 10.5702 0.843478 10.5 0.666667 10.5C0.489856 10.5 0.320286 10.5702 0.195262 10.6953C0.0702379 10.8203 0 10.9899 0 11.1667L0 15.8333C0 16.0101 0.0702379 16.1797 0.195262 16.3047C0.320286 16.4298 0.489856 16.5 0.666667 16.5C0.843478 16.5 1.01305 16.4298 1.13807 16.3047C1.2631 16.1797 1.33333 16.0101 1.33333 15.8333V14.5H2.66667C2.84348 14.5 3.01305 14.5702 3.13807 14.6953C3.2631 14.8203 3.33333 14.9899 3.33333 15.1667V15.8333C3.33333 16.0101 3.40357 16.1797 3.5286 16.3047C3.65362 16.4298 3.82319 16.5 4 16.5C4.17681 16.5 4.34638 16.4298 4.47141 16.3047C4.59643 16.1797 4.66667 16.0101 4.66667 15.8333V15.1667C4.66667 14.6362 4.45595 14.1275 4.08088 13.7525C3.70581 13.3774 3.1971 13.1667 2.66667 13.1667Z" fill="#646464"/>
<path d="M15.3334 10.5C15.1566 10.5 14.987 10.5702 14.862 10.6953C14.7369 10.8203 14.6667 10.9899 14.6667 11.1667V13.1667H13.3334C12.8029 13.1667 12.2942 13.3774 11.9192 13.7525C11.5441 14.1275 11.3334 14.6362 11.3334 15.1667V15.8333C11.3334 16.0101 11.4036 16.1797 11.5286 16.3047C11.6537 16.4298 11.8232 16.5 12 16.5C12.1769 16.5 12.3464 16.4298 12.4714 16.3047C12.5965 16.1797 12.6667 16.0101 12.6667 15.8333V15.1667C12.6667 14.9899 12.7369 14.8203 12.862 14.6953C12.987 14.5702 13.1566 14.5 13.3334 14.5H14.6667V15.8333C14.6667 16.0101 14.7369 16.1797 14.862 16.3047C14.987 16.4298 15.1566 16.5 15.3334 16.5C15.5102 16.5 15.6798 16.4298 15.8048 16.3047C15.9298 16.1797 16 16.0101 16 15.8333V11.1667C16 10.9899 15.9298 10.8203 15.8048 10.6953C15.6798 10.5702 15.5102 10.5 15.3334 10.5Z" fill="#646464"/>
</g>
<defs>
<clipPath id="clip0_165_1965">
<rect width="16" height="16" fill="white" transform="translate(0 0.5)"/>
</clipPath>
</defs>
</svg>
