<svg width="16" height="17" viewBox="0 0 16 17" fill="none" xmlns="http://www.w3.org/2000/svg">
<g opacity="0.5" clip-path="url(#clip0_52_236)">
<path d="M12.6667 3.83268H11.2667C11.1119 3.08029 10.7025 2.40425 10.1075 1.91849C9.51245 1.43274 8.76814 1.16699 8 1.16602H3.33333C2.4496 1.16707 1.60237 1.5186 0.97748 2.1435C0.352588 2.76839 0.00105857 3.61562 0 4.49935L0 10.4994C0.00167587 11.0964 0.203692 11.6757 0.573691 12.1443C0.94369 12.613 1.46026 12.9439 2.04067 13.084C1.97784 13.4176 1.98858 13.761 2.07213 14.09C2.15568 14.4191 2.31002 14.7259 2.5244 14.9892C2.73877 15.2524 3.00801 15.4657 3.31333 15.6142C3.61864 15.7627 3.95267 15.8427 4.29211 15.8488C4.63155 15.8548 4.96823 15.7867 5.27864 15.6492C5.58905 15.5118 5.86572 15.3082 6.08934 15.0527C6.31296 14.7973 6.47815 14.4961 6.57337 14.1703C6.66859 13.8444 6.69156 13.5017 6.64067 13.166H9.362C9.34485 13.2763 9.33571 13.3877 9.33467 13.4994C9.33467 14.1182 9.5805 14.7117 10.0181 15.1493C10.4557 15.5869 11.0492 15.8327 11.668 15.8327C12.2868 15.8327 12.8803 15.5869 13.3179 15.1493C13.7555 14.7117 14.0013 14.1182 14.0013 13.4994C14.0006 13.3599 13.987 13.2209 13.9607 13.084C14.5408 12.9436 15.0571 12.6126 15.4268 12.144C15.7966 11.6754 15.9984 11.0963 16 10.4994V7.16602C15.9989 6.28229 15.6474 5.43505 15.0225 4.81016C14.3976 4.18527 13.5504 3.83374 12.6667 3.83268V3.83268ZM14.6667 7.16602V7.83268H11.3333V5.16602H12.6667C13.1971 5.16602 13.7058 5.37673 14.0809 5.7518C14.456 6.12688 14.6667 6.63558 14.6667 7.16602ZM1.33333 10.4994V4.49935C1.33333 3.96892 1.54405 3.46021 1.91912 3.08514C2.29419 2.71006 2.8029 2.49935 3.33333 2.49935H8C8.53043 2.49935 9.03914 2.71006 9.41421 3.08514C9.78929 3.46021 10 3.96892 10 4.49935V11.8327H2.66667C2.31304 11.8327 1.97391 11.6922 1.72386 11.4422C1.47381 11.1921 1.33333 10.853 1.33333 10.4994ZM5.33333 13.4994C5.33333 13.7646 5.22798 14.0189 5.04044 14.2065C4.8529 14.394 4.59855 14.4994 4.33333 14.4994C4.06812 14.4994 3.81376 14.394 3.62623 14.2065C3.43869 14.0189 3.33333 13.7646 3.33333 13.4994C3.33374 13.3854 3.35475 13.2725 3.39533 13.166H5.27133C5.31192 13.2725 5.33292 13.3854 5.33333 13.4994V13.4994ZM11.6667 14.4994C11.4015 14.4994 11.1471 14.394 10.9596 14.2065C10.772 14.0189 10.6667 13.7646 10.6667 13.4994C10.667 13.3854 10.688 13.2725 10.7287 13.166H12.6047C12.6454 13.2725 12.6664 13.3854 12.6667 13.4994C12.6667 13.7646 12.5613 14.0189 12.3738 14.2065C12.1862 14.394 11.9319 14.4994 11.6667 14.4994ZM13.3333 11.8327H11.3333V9.16602H14.6667V10.4994C14.6667 10.853 14.5262 11.1921 14.2761 11.4422C14.0261 11.6922 13.687 11.8327 13.3333 11.8327Z" fill="#BDBDBD"/>
</g>
<defs>
<clipPath id="clip0_52_236">
<rect width="16" height="16" fill="white" transform="translate(0 0.5)"/>
</clipPath>
</defs>
</svg>
