<svg width="715" height="114" viewBox="0 0 715 114" fill="none" xmlns="http://www.w3.org/2000/svg">
<path d="M268.472 89.7996C268.472 87.1378 268.449 84.536 268.5 81.9365C268.524 81.7345 268.592 81.5401 268.698 81.3664C268.804 81.1928 268.947 81.0439 269.116 80.9299C269.856 80.4936 270.02 79.9257 270.011 79.1199C269.969 75.9017 269.993 72.6812 269.993 69.4238C268.224 68.9782 266.283 69.8855 264.619 68.5142C266.323 67.3252 268.203 68.2002 269.993 67.7039V66.4826C269.982 53.5821 269.969 40.6823 269.955 27.7833C269.955 25.9364 269.531 25.417 267.767 24.9391C266.578 24.6182 265.395 24.2604 264.215 23.9049C263.369 23.6509 262.986 23.1015 263 22.1896C263.014 21.2777 263.617 21.2107 264.299 21.0837C275.183 19.0868 286.05 16.9883 296.953 15.0952C302.992 14.0471 309.115 13.4792 315.157 12.4426C324.618 10.8266 334.04 8.96582 343.487 7.2459C356.762 4.82802 370.041 2.44014 383.323 0.0822773C384.392 -0.0752674 385.482 -0.00603479 386.523 0.285435C401.131 4.1439 415.73 8.03083 430.319 11.9462C432.148 12.4357 432.598 13.0728 432.368 14.8459L431.262 15.0767C431.343 15.5154 431.397 15.9147 431.494 16.3026C434.35 28.2905 437.203 40.2799 440.051 52.2708C440.168 52.8739 440.427 53.4408 440.807 53.9245C441.187 54.4082 441.678 54.7949 442.237 55.0527C448.017 57.8923 453.762 60.8057 459.581 63.5645C461.77 64.6011 462.801 66.0809 462.801 68.4888C462.801 74.1703 462.913 79.8495 462.975 85.5287C462.996 87.4102 463.365 87.7565 465.24 87.6064C468.001 87.3963 468.008 87.3963 467.999 90.1459C467.999 91.2194 467.899 92.2952 467.943 93.3664C467.994 94.6523 467.248 95.1487 466.149 95.3472C461.445 96.1991 456.743 97.0787 452.026 97.8544C450.528 98.0991 449.536 98.6878 448.801 100.075C444.897 107.437 434.659 109.34 428.323 103.884C427.732 103.341 427.038 102.92 426.281 102.647C425.525 102.374 424.721 102.254 423.918 102.294C421.18 102.382 418.435 102.368 415.695 102.294C414.714 102.266 414.232 102.619 413.865 103.464C413.332 104.695 412.618 105.854 412.108 107.093C410.369 111.3 406.908 113.172 402.684 113.74C400.064 114.091 397.375 113.95 394.716 113.996C394.289 114.021 393.864 113.925 393.489 113.719C391.56 112.456 389.33 111.438 387.844 109.771C385.449 107.086 383.592 103.965 383.486 100.124C383.458 99.0502 382.985 97.9906 382.686 96.797C380.984 97.1825 379.456 97.5404 377.922 97.8682C377.439 97.9721 377.034 98.1291 376.53 97.5819C376.095 97.1202 375.232 96.8755 374.537 96.8293C368.917 96.4484 363.295 96.0721 357.668 95.8505C356.288 95.8383 354.918 96.0988 353.639 96.6169C349.595 98.1925 345.204 98.6705 340.914 98.0021C339.961 97.8567 338.959 97.2426 338.231 96.5731C336.652 95.1186 334.965 94.3822 332.748 94.3568C328.893 94.3129 325.04 93.9851 321.191 93.7196C319.953 93.6342 319.197 94.0798 318.833 95.2525C318.699 95.6912 318.497 96.109 318.319 96.5338C316.986 99.6989 314.577 101.472 311.164 101.761C308.051 102.026 304.926 102.148 301.803 102.308C299.786 102.412 298.093 101.601 297.05 99.9575C296.1 98.4592 295.411 96.7693 294.783 95.0979C294.342 93.9228 294.159 92.6461 293.925 91.4041C293.67 90.0397 292.863 89.2594 291.505 89.1901C288.12 89.0216 284.728 88.7399 281.35 88.8461C277.499 88.9639 273.66 89.4556 269.814 89.7696C269.394 89.825 268.977 89.7996 268.472 89.7996ZM271.421 67.7847C271.857 67.8147 272.195 67.8562 272.536 67.8585C275.895 67.8862 279.259 67.9186 282.611 67.9232C295.509 67.9478 308.407 67.9678 321.305 67.9832C329.96 68.0032 338.609 68.0402 347.252 68.094C348.604 68.094 349.953 68.131 351.304 68.1633C351.907 68.1771 352.505 68.2302 352.464 69.0752C352.433 69.8255 352 70.0309 351.304 69.9986C350.261 69.9617 349.218 70.0656 348.177 69.9686C347.059 69.8647 346.811 70.3195 346.853 71.3376C346.927 73.1637 346.874 74.9945 346.874 76.8783H343.728V69.9455H319.863V75.7448C319.4 75.7136 318.935 75.7136 318.472 75.7448C317.333 75.911 317.009 75.4331 317.081 74.3388C317.171 72.8174 317.104 71.2868 317.104 69.7354C316.837 69.686 316.568 69.6505 316.297 69.6292C308.303 69.6292 300.3 69.6292 292.316 69.6131C291.563 69.6131 291.291 69.8439 291.317 70.5989C291.366 72.0025 291.331 73.4084 291.331 74.8282H289.107V69.6269H275.499V74.5258L273.141 74.4127V69.4445C271.384 69.4007 271.384 69.4007 271.384 70.9544C271.384 75.293 271.384 79.6317 271.384 83.9704C271.384 85.3832 271.703 85.7434 273.101 85.8957C278.819 86.5191 284.538 87.1101 290.257 87.7703C291.345 87.8973 291.804 87.6734 292.008 86.5121C292.444 84.0281 292.907 81.5094 293.654 79.1038C295.325 73.8217 302.352 72.2241 306.122 76.3127C307.335 77.6511 308.221 79.2512 308.709 80.9876C309.581 84.1943 310.04 87.5141 310.626 90.7923C310.745 91.4572 310.819 91.8935 311.691 91.9328C315.699 92.1082 319.705 92.3645 323.714 92.5884C331.573 93.0317 339.433 93.4734 347.294 93.9135C349.672 94.0451 352.049 94.1652 354.564 94.2991V92.7038C354.553 70.2333 354.541 47.7705 354.527 25.3154C354.527 23.0807 355.111 22.4019 357.27 22.1203C366.07 20.9783 374.871 19.8363 383.671 18.6943C385.558 18.4519 386.37 19.0683 386.766 20.9244C388.247 27.8657 389.739 34.8054 391.243 41.7435C391.841 44.5138 392.502 47.2842 393.014 50.073C393.308 51.689 392.768 52.5132 391.308 52.6356C388.697 52.8549 386.071 52.9588 383.451 52.9749C382.06 52.9749 381.501 52.3793 381.364 50.9895C381.227 49.5997 381.221 48.1545 381.214 46.737C381.173 39.1725 381.146 31.6087 381.13 24.0457C381.13 22.1249 381.473 21.7371 383.365 21.3146C383.949 21.1876 384.524 21.056 385.115 20.9267C385.129 20.7952 385.146 20.6636 385.159 20.532C384.464 20.3658 383.745 20.0449 383.045 20.0702C381.979 20.1072 380.919 20.3981 379.853 20.5481C378.786 20.6982 378.392 21.2269 378.399 22.395C378.457 31.6872 378.434 40.9794 378.432 50.2715C378.432 52.684 377.796 53.3443 375.381 53.4436C372.796 53.5475 370.213 53.649 367.628 53.7298C365.354 53.8037 363.075 53.9053 360.8 53.8868C358.57 53.8683 357.671 52.9195 357.569 50.6986C357.569 50.507 357.569 50.3154 357.569 50.1238C357.569 42.7501 357.569 35.3779 357.569 28.0073C357.574 27.5087 357.607 27.0108 357.668 26.5159C357.826 25.163 358.596 24.3366 359.936 24.1172C361.456 23.8679 362.987 23.6555 364.517 23.4801C367.964 23.0576 371.416 22.6744 374.859 22.2265C375.536 22.1388 376.183 21.8363 376.846 21.6309L376.728 21.1414C375.865 21.183 374.993 21.1715 374.138 21.2753C369.038 21.9033 363.958 22.5797 358.862 23.1938C356.363 23.4962 355.818 24.0272 355.756 26.5344C355.756 26.8022 355.756 27.07 355.756 27.3401C355.804 32.7122 355.89 38.0867 355.899 43.4588C355.929 59.97 355.943 76.4812 355.943 92.9924V94.3291C356.491 94.3845 356.94 94.4445 357.39 94.4699C362.977 94.7954 368.562 95.1002 374.147 95.4442C376.368 95.5804 376.672 95.3749 377.446 93.3018C378.949 89.2755 380.46 85.2562 382.053 81.2623C383.254 78.2334 385.607 76.4997 388.751 75.8117C395.991 74.2211 403.11 77.8064 406.004 84.6075C407.07 87.1101 407.858 89.7303 408.714 92.3206C408.962 93.0825 409.328 93.3202 410.117 93.3064C412.625 93.2556 415.136 93.2902 417.647 93.2833C417.939 93.2833 418.231 93.2233 418.555 93.1886C418.583 92.8862 418.623 92.6623 418.623 92.436C418.623 84.7206 418.623 77.0045 418.623 69.2876C418.623 67.4176 417.744 66.2125 416.072 65.416C410.566 62.805 405.107 60.1062 399.58 57.5298C397.136 56.3963 395.708 54.651 395.138 52.0422C392.046 37.9104 388.932 23.784 385.795 9.66302C385.183 6.89269 384.524 4.15236 383.873 1.33124L306.975 15.363V15.6654C309.126 16.4942 311.276 17.3299 313.434 18.1472C319.168 20.3173 324.902 22.4835 330.636 24.6459C332.285 25.2692 332.611 25.7194 332.639 27.4601C332.653 28.4205 332.595 29.3786 332.595 30.339C332.595 40.7077 332.595 51.0749 332.595 61.4406C332.595 61.8838 332.556 62.3271 332.533 62.7727H290.774V61.4314C290.774 56.2855 290.689 51.1396 290.807 45.996C290.876 43.0386 290.111 40.5038 288.136 38.2806C286.777 36.7615 285.405 35.2148 284.315 33.5064C281.8 29.5633 278.135 27.5478 273.665 26.6914C272.935 26.5505 272.22 26.3266 271.423 26.1211L271.421 67.7847ZM386.045 4.07618C386.08 4.48711 386.077 4.64179 386.11 4.78723C389.51 20.2272 392.91 35.6672 396.311 51.1072C396.9 53.7829 398.425 55.5929 400.947 56.7495C406.28 59.1989 411.538 61.7823 416.851 64.2571C419.075 65.2937 420.06 66.9513 420.041 69.3707C419.984 77.0514 419.988 84.7299 419.967 92.4083V93.7542C423.445 93.4564 426.751 93.184 430.05 92.8862C432.192 92.6946 432.435 92.4245 432.445 90.2475C432.473 84.1435 432.488 78.0387 432.491 71.9332C432.491 71.5962 432.459 71.2568 432.431 70.7789H426.595C424.583 70.7789 424.228 70.5481 424.381 68.5188C424.567 66.0832 423.496 64.7696 421.349 63.7053C414.477 60.2909 407.701 56.6825 400.883 53.1642C399.466 52.4347 398.481 51.4004 398.114 49.8213C396.068 40.9978 394.018 32.1758 391.964 23.3554C391.47 21.2246 392.052 20.5851 394.182 20.9706C400.066 22.0233 405.946 23.1222 411.828 24.2027C413.235 24.4566 414.081 25.23 414.426 26.629C416.471 34.94 418.544 43.251 420.589 51.5736C421.052 53.4482 420.695 53.9122 418.762 53.8406C414.983 53.6998 411.204 53.4828 407.425 53.3097C406.699 53.275 405.971 53.3097 405.243 53.3097C405.366 53.6095 405.593 53.8552 405.883 54.0022C409.196 55.8191 412.498 57.6591 415.831 59.4367C418.008 60.591 420.264 61.6137 422.436 62.7842C424.49 63.89 425.958 65.4807 425.763 67.9971C425.677 69.1029 426.055 69.343 427.099 69.3384C436.676 69.3037 446.253 69.3176 455.83 69.3176C455.946 69.3095 456.062 69.3095 456.178 69.3176C456.994 69.4399 457.249 69.0059 457.316 68.2764C457.439 66.9674 456.901 66.074 455.394 65.3214C450.737 62.9966 446.012 60.7965 441.426 58.3401C436.407 55.6506 431.292 53.6375 425.429 54.2354C423.853 54.3947 422.369 53.1758 422.003 51.6959C420.026 43.6774 418.061 35.6572 416.107 27.6356C415.681 25.8718 416.29 25.2 418.076 25.4978C420.929 25.9757 423.767 26.5367 426.614 27.0584C428.608 27.4232 430.604 27.7833 432.776 28.1781C432.672 27.5871 432.614 27.1808 432.526 26.7929C431.83 23.6047 430.996 20.4396 430.439 17.226C430.082 15.1644 429.034 14.2525 427.036 13.7931C417.491 11.5999 407.974 9.28672 398.448 7.02428C394.373 6.02465 390.29 5.0735 386.045 4.07618ZM295.339 49.9737C295.949 49.9737 296.445 49.9991 296.937 49.9737C307.564 49.3335 318.191 48.6901 328.819 48.0437C330.441 47.9444 330.441 47.9444 330.474 46.303C330.479 45.994 330.503 45.6857 330.546 45.3796C331.369 39.7558 329.683 34.9446 325.851 30.7868C324.877 29.7318 323.809 29.2885 322.374 29.4594C313.718 30.4859 305.063 31.4863 296.408 32.4606C295.555 32.5552 295.249 32.8484 295.26 33.7419C295.304 38.7677 295.279 43.7936 295.284 48.8217C295.267 49.1911 295.311 49.5628 295.339 49.9737ZM268.564 23.2307L268.585 23.5516C268.818 23.669 269.057 23.7723 269.302 23.861C276.644 26.0957 283.984 28.3351 291.338 30.5306C292.044 30.7131 292.779 30.7578 293.503 30.6622C301.331 29.808 309.157 28.9322 316.979 28.035C319.033 27.8041 321.08 27.5132 323.19 27.2431C321.657 24.7452 319.828 23.0576 317.394 22.1503C312.912 20.4866 308.41 18.8798 303.889 17.3299C303.158 17.0986 302.381 17.0502 301.627 17.1891C292.063 18.8929 282.5 20.6259 272.939 22.3881C271.481 22.6467 270.03 22.9468 268.564 23.2307ZM404.251 42.1406H404.11C404.11 45.0956 404.144 48.0529 404.091 51.008C404.075 51.9314 404.388 52.2015 405.278 52.2038C406.704 52.2038 408.13 52.3354 409.556 52.4024C411.971 52.5155 412.637 51.9407 412.651 49.5282C412.685 43.7312 412.651 37.9343 412.681 32.1374C412.681 31.2855 412.354 31.1008 411.589 31.1193C409.966 31.1608 408.343 31.1193 406.72 31.1331C404.826 31.1331 404.284 31.6249 404.258 33.5064C404.233 36.3829 404.26 39.2617 404.26 42.1406H404.251ZM437.867 53.6837C437.92 53.4662 437.951 53.2444 437.962 53.0211C436.052 45.7136 434.132 38.4099 432.201 31.11C432.134 30.8515 431.782 30.4983 431.548 30.4844C430.367 30.4198 429.183 30.4567 428.07 30.4567C427.959 30.6483 427.889 30.713 427.889 30.7799C427.817 35.718 427.711 40.6562 427.699 45.5943C427.699 48.4154 428.784 50.7864 431.51 51.8968C433.523 52.7071 435.695 53.0927 437.886 53.6814L437.867 53.6837ZM400.669 98.3415C400.669 96.0144 399.937 93.9366 398.564 92.406C397.048 90.7138 394.815 90.0166 393.07 91.0209C392.022 91.6165 390.962 92.5607 390.438 93.6088C389.731 95.0286 389.047 96.7601 389.24 98.2468C389.472 100.024 390.429 101.811 391.426 103.372C393.111 106.015 396.378 106.182 398.546 103.908C400.015 102.347 400.667 100.456 400.669 98.3415ZM457.571 72.6812C457.898 72.6328 458.165 72.5958 458.429 72.5519C459.041 72.4504 459.519 72.1295 459.287 71.4854C459.182 71.1922 458.661 70.9105 458.301 70.8759C457.425 70.7882 456.526 70.9059 455.647 70.8297C454.641 70.742 454.321 71.0767 454.33 72.1064C454.381 77.5524 454.353 82.9961 454.356 88.4421C454.356 88.8092 454.4 89.1763 454.427 89.6264L459.365 88.9546V83.3747C459.027 83.5617 458.809 83.691 458.584 83.8064C457.671 84.2682 457.075 84.1019 456.787 83.1508C456.274 81.4891 456.281 79.7113 456.806 78.0534C457.038 77.2985 457.566 77.0284 458.336 77.2777C458.621 77.37 458.904 77.4762 459.243 77.594V74.9552C457.26 74.3711 457.26 74.3711 457.571 72.6812ZM417.758 30.7684C419.276 37.0409 420.751 43.1333 422.228 49.2257L422.65 49.1772C422.675 48.7871 422.724 48.3946 422.726 48.0045C422.726 45.592 422.726 43.1772 422.726 40.7623C422.726 37.7612 422.745 34.7853 422.701 31.7957C422.701 31.4517 422.367 30.8284 422.156 30.8145C420.749 30.7268 419.332 30.7684 417.758 30.7684ZM297.514 89.7557C297.623 91.5495 297.917 93.2787 299.183 94.6731C300.147 95.735 301.362 96.0005 302.394 95.4188C303.426 94.837 305.352 90.9354 304.997 89.8642C304.525 88.3644 303.911 86.9121 303.166 85.5264C302.176 83.751 300.458 83.6564 299.069 85.1662C297.88 86.4636 297.618 88.0866 297.514 89.7557ZM414.236 31.4679C414.141 31.4888 414.048 31.5189 413.958 31.5579C413.933 37.2325 413.907 42.9094 413.914 48.5862C413.914 48.7986 414.215 49.1934 414.378 49.198C415.708 49.2511 417.042 49.228 418.551 49.228C417.088 43.1795 415.662 37.3294 414.236 31.4679ZM461.1 88.4906L461.538 88.4791C461.602 88.0515 461.642 87.6206 461.658 87.1886C461.545 80.8214 461.403 74.4542 461.304 68.0871C461.28 66.7019 460.687 65.7785 459.449 65.1621C452.895 61.8908 446.357 58.5918 439.796 55.3343C439.115 54.9973 438.324 54.8726 437.584 54.6417L437.425 55.0042C437.809 55.2707 438.206 55.5173 438.616 55.7429C444.424 58.6118 450.236 61.4721 456.05 64.3241C457.638 65.0997 458.631 66.1871 458.6 68.0709C458.6 68.4796 459.013 69.126 459.386 69.2668C460.393 69.65 460.726 70.3034 460.736 71.2938C460.784 76.4327 460.845 81.5732 460.921 86.7153C460.942 87.3132 461.042 87.9019 461.1 88.4906ZM290.248 39.8597L290.726 39.6127C290.726 37.5349 290.707 35.4572 290.726 33.3656C290.74 32.3659 290.276 31.798 289.335 31.5187C287.786 31.0569 286.251 30.5629 284.698 30.1473C284.271 30.0319 283.771 30.1473 283.307 30.1704C283.453 30.616 283.49 31.1447 283.771 31.4933C285.771 34.0651 287.823 36.5976 289.849 39.1486C290.002 39.374 290.136 39.6118 290.248 39.8597ZM293.165 53.5798C293.165 53.7321 293.178 53.8822 293.188 54.0415L330.627 52.6309C330.293 52.2154 330.18 51.9545 330.075 51.9591C317.772 52.4824 305.469 53.0226 293.165 53.5798ZM330.094 35.3163L330.342 35.2217V28.6837L325.596 29.2216L330.094 35.3163ZM293.624 32.8992L293.16 32.7515C292.9 33.3101 292.439 33.8596 292.418 34.4275C292.332 36.683 292.309 38.9478 292.418 41.1987C292.457 41.9813 292.967 42.7362 293.264 43.5073L293.605 43.3826L293.624 32.8992ZM433.938 75.32L433.959 75.8325L452.452 75.1699C452.452 74.9783 452.436 74.7844 452.429 74.5928L433.938 75.32ZM433.648 80.8976L433.715 81.5717L452.128 80.1727C452.128 80.0319 452.107 79.8887 452.095 79.7456L433.648 80.8976ZM328.921 26.1835L322.413 23.8748C323.222 27.2085 325.932 28.1596 328.921 26.1788V26.1835ZM433.864 82.8738C433.882 83.0446 433.901 83.2177 433.917 83.3886C440.077 82.9269 446.241 82.4882 452.392 81.9295L452.348 81.4147L433.864 82.8738ZM452.318 86.9485L452.26 86.4706L433.891 88.5068L433.959 89.0701L452.318 86.9485ZM452.206 85.2516C450.883 84.7045 434.455 86.4498 433.935 87.2278L452.206 85.2516ZM452.046 83.6356C449.976 83.0931 434.267 84.5914 433.673 85.3417L452.046 83.6356ZM433.864 79.0392L433.884 79.5886L452.172 78.5105C452.172 78.3604 452.153 78.2104 452.146 78.0488L433.864 79.0392ZM433.91 77.1322L433.947 77.7509L451.893 76.8275C451.893 76.7028 451.88 76.5759 451.875 76.4512L433.91 77.1322ZM292.49 50.2023L292.754 50.417C293.093 50.1145 293.695 49.8329 293.723 49.5051C293.838 48.258 293.824 47.0024 293.682 45.7582C293.61 45.188 293.074 44.6731 292.754 44.1422L292.495 44.2876L292.49 50.2023ZM443.244 73.6786L443.258 73.6208H433.921C433.921 73.764 433.921 73.9048 433.938 74.0479L443.244 73.6786ZM397.287 109.665H392.077C393.816 110.515 395.555 110.859 397.287 109.665ZM391.319 4.03924C391.275 3.57752 391.4 2.85723 391.159 2.70255C390.677 2.38858 390 2.37473 389.381 2.24083C389.191 3.74143 389.506 4.02077 391.319 4.03924ZM404.652 93.6365L406.987 93.7866L406.203 91.6465L404.652 93.6365ZM407.045 94.9201L405.318 96.4946L407.761 97.418L407.045 94.9201ZM406.168 90.7507L404.659 88.9039C404.344 89.608 404.103 90.139 403.825 90.7507H406.168Z" fill="#3BA8C0"/>
<path d="M336 23.3797L348 22V67H336V23.3797Z" fill="#3BA8C0"/>
<path d="M411 72H413.966C414.048 73.0232 414.056 73.7962 413.085 73.9363C411.641 74.1415 411.336 73.9388 411 72Z" fill="#3BA8C0"/>
<path d="M381 9C381.128 8.1762 381.121 7.3304 381.305 7.21795C381.744 6.95395 382.273 7.00039 382.765 7.00773C382.851 7.00773 383.028 7.46729 382.996 7.6433C382.939 7.95131 382.787 8.35954 382.613 8.45243C382.168 8.68955 381.693 8.77755 381 9Z" fill="#3BA8C0"/>
<path d="M423 83.3751C423.369 82.165 423.536 81.0611 424.035 80.0997C424.783 78.6497 426.243 78.6543 427.205 79.9911C428.345 81.5746 428.243 84.7097 427.001 86.2276C426.215 87.1912 425.045 87.2998 424.332 86.2886C423.708 85.4064 423.422 84.3297 423 83.3751Z" fill="#3BA8C0"/>
<path d="M427.987 75.9942C426.747 75.9942 425.667 76.0147 424.596 75.9788C424.453 75.9552 424.324 75.91 424.219 75.8474C424.115 75.7849 424.039 75.7073 424 75.6221C424.017 75.0999 423.932 74.2022 424.285 74.1288C425.3 73.9189 426.508 74.0195 427.634 74.0588C427.77 74.0588 427.947 74.4291 427.973 74.6339C428.024 75.0555 427.987 75.4822 427.987 75.9942Z" fill="#3BA8C0"/>
<path d="M396.884 92.3474C393.844 93.5547 393.187 95.4234 393.906 97.804C393.951 97.9853 393.951 98.1731 393.906 98.3544C393.373 100.774 393.906 101.849 396.317 103.172L397 103.551C395.65 104.171 394.46 104.128 393.288 103.551C389.349 101.627 388.821 95.1538 392.402 92.7279C393.656 91.8808 395.042 91.7992 396.884 92.3474Z" fill="#3BA8C0"/>
<path d="M302 94.9885C300.413 95.0905 299.344 94.5134 298.77 93.2746C298.287 92.259 298.025 91.1568 298.002 90.0376C297.978 88.9184 298.193 87.8065 298.632 86.7723C299.155 85.4764 300.132 84.9714 301.783 85.0012C299.589 88.3544 299.653 91.6702 302 94.9885Z" fill="#3BA8C0"/>
<path d="M11.4839 71.5885V67.8218C9.35852 67.573 7.42739 66.9961 5.69053 66.0912C3.95366 65.1637 2.57102 63.9647 1.54261 62.4942C0.514204 61.0237 0 59.3609 0 57.5058C0 55.6734 0.514204 54.0445 1.54261 52.6193C2.57102 51.1714 3.95366 49.9837 5.69053 49.0562C7.42739 48.1287 9.35852 47.5405 11.4839 47.2916V44L16.2831 44.6787L16.2146 47.3256C18.3171 47.597 20.2139 48.1965 21.9051 49.1241C23.5963 50.0516 24.9332 51.2393 25.9159 52.6872C26.9214 54.1124 27.4242 55.7186 27.4242 57.5058C27.4242 59.4062 26.8986 61.1029 25.8473 62.596C24.7961 64.0665 23.3791 65.2542 21.5966 66.1591C19.8369 67.064 17.86 67.6296 15.6661 67.8558L15.5975 71.1474L11.4839 71.5885ZM11.4839 50.719C10.3641 50.9452 9.30138 51.3524 8.29583 51.9406C7.31312 52.5288 6.51325 53.2641 5.89621 54.1463C5.30202 55.0286 5.00492 56.0467 5.00492 57.2004C5.00492 57.3135 5.00492 57.438 5.00492 57.5737C5.00492 57.7094 5.01635 57.8339 5.0392 57.947C5.17632 59.0555 5.5534 60.0396 6.17045 60.8993C6.78749 61.7363 7.56451 62.4376 8.50151 63.0032C9.4385 63.5688 10.4326 63.9873 11.4839 64.2588V50.719ZM15.7689 64.4284C16.9345 64.2022 18.02 63.795 19.0256 63.2068C20.054 62.6186 20.8767 61.872 21.4937 60.9671C22.1108 60.0396 22.4193 58.9989 22.4193 57.8452C22.4193 57.7321 22.4193 57.6076 22.4193 57.4719C22.4193 57.3362 22.4079 57.2117 22.385 57.0986C22.2708 56.0127 21.9051 55.0513 21.2881 54.2142C20.6939 53.3772 19.9397 52.6759 19.0256 52.1103C18.1343 51.5447 17.163 51.1375 16.1117 50.8887L15.7689 64.4284Z" fill="white"/>
<path d="M34.2803 71.1474L39.1481 61.9852L29.8238 44.8823L35.3772 44.1357L41.4449 57.7434L48.678 44.2375L51.9003 45.2556L39.388 71.5207L34.2803 71.1474Z" fill="white"/>
<path d="M74.6624 76V71.1474H60.7104V75.491L56.2197 76L55.534 66.9396H58.2765C58.7335 65.8084 59.1221 64.5868 59.442 63.2747C59.7848 61.9399 60.0476 60.6278 60.2304 59.3383C60.4361 58.0488 60.539 56.9176 60.539 55.9449C60.539 55.8317 60.5275 55.7186 60.5047 55.6055C60.5047 55.4698 60.5047 55.3454 60.5047 55.2322L59.9562 44.6787H64.9611V45.8324L77.5763 44.4072L76.5821 67.1771L79.8388 66.9396L79.1532 75.491L74.6624 76ZM72.4342 48.9205H64.9611V55.1644C64.9611 56.386 64.8469 57.766 64.6183 59.3043C64.3898 60.8201 64.0127 62.3471 63.4871 63.8855C62.9843 65.4238 62.2987 66.8604 61.4303 68.1951L72.4342 67.4486V48.9205Z" fill="white"/>
<path d="M93.8937 71.5885V48.649H86.4891L85.4607 45.6288L106.269 44.3393V48.649H99.07L98.3844 71.1474L93.8937 71.5885Z" fill="white"/>
<path d="M115.01 71.6225L114.428 48.4454L112.748 48.6829L112.062 45.6967C112.702 45.561 113.548 45.4252 114.599 45.2895C115.673 45.1311 116.839 44.9841 118.096 44.8484C119.352 44.69 120.587 44.5656 121.798 44.4751C123.009 44.3846 124.083 44.3393 125.02 44.3393C126.757 44.3393 128.357 44.69 129.819 45.3913C131.282 46.0926 132.459 47.0767 133.35 48.3436C134.242 49.6105 134.687 51.0809 134.687 52.755C134.687 54.8137 134.242 56.5331 133.35 57.913C132.459 59.2704 131.271 60.2884 129.785 60.9671C128.323 61.6458 126.688 61.9852 124.883 61.9852C124.129 61.9852 123.272 61.8947 122.312 61.7137C121.352 61.5327 120.335 61.2047 119.261 60.7296V71.1474L115.01 71.6225ZM119.261 57.5058C119.764 57.6868 120.324 57.8565 120.941 58.0148C121.558 58.1506 122.152 58.2524 122.723 58.3203C123.318 58.3881 123.786 58.4221 124.129 58.4221C125.797 58.4221 127.168 57.9809 128.243 57.0986C129.339 56.1937 129.888 54.8137 129.888 52.9586C129.888 51.918 129.637 51.0244 129.134 50.2778C128.631 49.5313 127.98 48.9544 127.18 48.5472C126.38 48.14 125.534 47.9364 124.643 47.9364C123.843 47.9364 122.952 47.9477 121.969 47.9703C120.987 47.9703 120.084 48.0042 119.261 48.0721V57.5058Z" fill="white"/>
<path d="M158.169 71.5885L156.352 66.1591H144.628L142.229 71.5885L138.664 71.1474L148.536 44L153.85 45.2895L153.13 46.8844L163.414 71.1135L158.169 71.5885ZM151.313 51.0244L145.965 63.105L155.015 62.1209L151.313 51.0244Z" fill="white"/>
<path d="M184.496 71.5885L176.818 59.2365C176.383 59.3043 175.938 59.3609 175.481 59.4062C175.024 59.4288 174.544 59.4627 174.041 59.508V71.1474L169.722 71.5885L169.036 44L174.041 44.6787V56.1485C175.412 56.1032 176.635 55.8431 177.709 55.368C178.806 54.8703 179.709 54.2142 180.417 53.3998C181.126 52.5627 181.56 51.6239 181.72 50.5832L182.817 44L187.719 45.2895L185.868 51.5673C184.931 54.7345 183.228 56.9063 180.76 58.0827L190.187 70.7402L184.496 71.5885Z" fill="white"/>
<path d="M211.509 71.5885L211.544 53.0604L199.237 71.5885L196.186 71.1474L195.055 44L199.82 44.6787V64.0212L211.681 44L216 44.7466L215.383 71.1474L211.509 71.5885Z" fill="white"/>
<path d="M516.942 71.1474L516.361 48.4454C516.041 48.468 515.733 48.5019 515.437 48.5472C515.163 48.5924 514.912 48.6377 514.684 48.6829L514 45.6967C514.639 45.561 515.46 45.4252 516.463 45.2895C517.49 45.1311 518.596 44.9841 519.782 44.8484C520.991 44.69 522.177 44.5656 523.34 44.4751C524.503 44.3846 525.552 44.3393 526.487 44.3393C528.175 44.3393 529.669 44.5995 530.969 45.1198C532.292 45.6402 533.318 46.4093 534.048 47.4274C534.801 48.4228 535.177 49.6444 535.177 51.0923C535.177 52.6532 534.801 53.9201 534.048 54.8929C533.295 55.8657 532.28 56.4765 531.003 56.7253L531.037 56.7932C531.995 56.8837 532.873 57.223 533.672 57.8112C534.493 58.3994 535.143 59.1912 535.622 60.1866C536.124 61.182 536.374 62.3697 536.374 63.7497C536.374 65.3786 535.975 66.7473 535.177 67.8558C534.402 68.9417 533.295 69.7674 531.859 70.333C530.444 70.8759 528.779 71.1474 526.864 71.1474H516.942ZM521.048 56.1145C521.595 56.1145 522.222 56.1032 522.929 56.0806C523.659 56.058 524.366 56.024 525.05 55.9788C525.757 55.9335 526.339 55.8657 526.795 55.7752C527.936 55.549 528.848 55.1078 529.532 54.4517C530.239 53.7957 530.593 52.936 530.593 51.8727C530.593 51.0357 530.387 50.3118 529.977 49.701C529.566 49.0901 529.03 48.6151 528.369 48.2757C527.707 47.9364 526.978 47.7667 526.179 47.7667C524.514 47.7667 522.804 47.8346 521.048 47.9703V56.1145ZM521.903 67.9236C523.02 67.9236 524.149 67.8897 525.29 67.8218C526.43 67.754 527.388 67.6409 528.164 67.4825C529.441 67.211 530.387 66.702 531.003 65.9555C531.619 65.1863 531.927 64.2248 531.927 63.0711C531.927 62.234 531.699 61.544 531.243 61.0011C530.787 60.4355 530.194 60.017 529.464 59.7455C528.757 59.474 527.981 59.3383 527.137 59.3383H521.048V67.9236H521.903Z" fill="white"/>
<path d="M574.732 71.5885L572.919 66.1591H561.218L558.824 71.5885L555.265 71.1474L565.118 44L570.421 45.2895L569.703 46.8844L579.966 71.1135L574.732 71.5885ZM567.89 51.0244L562.553 63.105L571.584 62.1209L567.89 51.0244Z" fill="white"/>
<path d="M586.398 71.6225L585.817 48.4454L584.14 48.6829L583.456 45.6967C584.095 45.561 584.938 45.4252 585.988 45.2895C587.06 45.1311 588.223 44.9841 589.477 44.8484C590.732 44.69 591.963 44.5656 593.172 44.4751C594.381 44.3846 595.453 44.3393 596.388 44.3393C598.121 44.3393 599.718 44.69 601.178 45.3913C602.637 46.0926 603.812 47.0767 604.701 48.3436C605.591 49.6105 606.036 51.0809 606.036 52.755C606.036 54.8137 605.591 56.5331 604.701 57.913C603.812 59.2704 602.626 60.2884 601.143 60.9671C599.684 61.6458 598.053 61.9852 596.251 61.9852C595.498 61.9852 594.643 61.8947 593.685 61.7137C592.727 61.5327 591.712 61.2047 590.64 60.7296V71.1474L586.398 71.6225ZM590.64 57.5058C591.142 57.6868 591.701 57.8565 592.317 58.0148C592.933 58.1506 593.526 58.2524 594.096 58.3203C594.689 58.3881 595.156 58.4221 595.498 58.4221C597.163 58.4221 598.532 57.9809 599.604 57.0986C600.699 56.1937 601.246 54.8137 601.246 52.9586C601.246 51.918 600.995 51.0244 600.493 50.2778C599.992 49.5313 599.342 48.9544 598.543 48.5472C597.745 48.14 596.901 47.9364 596.012 47.9364C595.213 47.9364 594.324 47.9477 593.343 47.9703C592.362 47.9703 591.461 48.0042 590.64 48.0721V57.5058Z" fill="white"/>
<path d="M614.178 71.1474L613.562 48.5811H612.091L611.407 45.6288L631.523 44.3393V48.5811H618.557V56.1485L629.813 55.1304V59.6098H618.557V67.5843L632.173 66.5663V71.1474H614.178Z" fill="white"/>
<path d="M654.89 71.5885V59.5758H644.319V71.1474L639.871 71.5885L639.187 44L644.319 44.6787V56.1824L654.89 55.334V44L660.056 44.6787L659.372 71.1474L654.89 71.5885Z" fill="white"/>
<path d="M682.978 76V71.1474H669.054V75.491L664.572 76L663.888 66.9396H666.625C667.081 65.8084 667.469 64.5868 667.788 63.2747C668.13 61.9399 668.392 60.6278 668.575 59.3383C668.78 58.0488 668.883 56.9176 668.883 55.9449C668.883 55.8317 668.871 55.7186 668.848 55.6055C668.848 55.4698 668.848 55.3454 668.848 55.2322L668.301 44.6787H673.296V45.8324L685.886 44.4072L684.894 67.1771L688.144 66.9396L687.46 75.491L682.978 76ZM680.754 48.9205H673.296V55.1644C673.296 56.386 673.182 57.766 672.954 59.3043C672.726 60.8201 672.349 62.3471 671.825 63.8855C671.323 65.4238 670.639 66.8604 669.772 68.1951L680.754 67.4486V48.9205Z" fill="white"/>
<path d="M697.415 71.1474L702.273 61.9852L692.968 44.8823L698.51 44.1357L704.565 57.7434L711.784 44.2375L715 45.2556L702.513 71.5207L697.415 71.1474Z" fill="white"/>
</svg>
