<svg width="24" height="24" viewBox="0 0 24 24" fill="none" xmlns="http://www.w3.org/2000/svg">
<path fill-rule="evenodd" clip-rule="evenodd" d="M10.68 16C7.49884 16 4.92 13.3137 4.92 9.99997C4.92 6.68629 7.49884 4 10.68 4C13.8611 4 17.08 6.01962 17.08 9.33337C17.08 12.6471 13.8611 16 10.68 16ZM10.68 18C6.43845 18 3 14.4183 3 9.99997C3 5.58172 6.43845 2 10.68 2C14.9215 2 19 4.91505 19 9.33337C19 11.3068 18.1863 13.2464 16.9078 14.7887L21.6736 18.5809C21.7857 18.6701 21.8353 18.817 21.801 18.9587L21.1948 21.4647C21.1213 21.7687 20.7339 21.8661 20.5366 21.6302L15.7789 15.9426C14.3216 17.2039 12.516 18 10.68 18Z" fill="white"/>
</svg>
