<svg width="17" height="16" viewBox="0 0 17 16" fill="none" xmlns="http://www.w3.org/2000/svg">
<path fill-rule="evenodd" clip-rule="evenodd" d="M8.5 16C12.9183 16 16.5 12.4183 16.5 8C16.5 3.58172 12.9183 0 8.5 0C4.08172 0 0.5 3.58172 0.5 8C0.5 12.4183 4.08172 16 8.5 16ZM5.1 7.2C4.65817 6.86863 4.03137 6.95817 3.7 7.4C3.36863 7.84183 3.45817 8.46863 3.9 8.8L7.9 11.8L8.67539 12.3815L9.28087 11.6247L13.2809 6.6247C13.6259 6.19343 13.556 5.56414 13.1247 5.21913C12.6934 4.87412 12.0641 4.94404 11.7191 5.3753L8.32461 9.61846L5.1 7.2Z" fill="#22BB1E"/>
</svg>
