<svg width="24" height="24" viewBox="0 0 24 24" fill="none" xmlns="http://www.w3.org/2000/svg">
<path d="M22.1942 9.29863L15.2413 2.34063C14.3808 1.4821 13.2152 1 12 1C10.7848 1 9.6192 1.4821 8.75867 2.34063L1.80576 9.29863C1.54948 9.55342 1.3463 9.85657 1.20799 10.1905C1.06967 10.5245 0.998982 10.8826 1.00001 11.244V20.2484C1.00001 20.9781 1.28974 21.678 1.80547 22.1941C2.32119 22.7101 3.02066 23 3.75001 23H20.25C20.9793 23 21.6788 22.7101 22.1945 22.1941C22.7103 21.678 23 20.9781 23 20.2484V11.244C23.001 10.8826 22.9303 10.5245 22.792 10.1905C22.6537 9.85657 22.4505 9.55342 22.1942 9.29863ZM14.75 21.1656H9.25V17.5572C9.25 16.8275 9.53973 16.1276 10.0555 15.6115C10.5712 15.0955 11.2707 14.8056 12 14.8056C12.7293 14.8056 13.4288 15.0955 13.9445 15.6115C14.4603 16.1276 14.75 16.8275 14.75 17.5572V21.1656ZM21.1667 20.2484C21.1667 20.4916 21.0701 20.7249 20.8982 20.8969C20.7263 21.0689 20.4931 21.1656 20.25 21.1656H16.5833V17.5572C16.5833 16.3409 16.1004 15.1744 15.2409 14.3144C14.3814 13.4543 13.2156 12.9712 12 12.9712C10.7844 12.9712 9.61864 13.4543 8.7591 14.3144C7.89956 15.1744 7.41667 16.3409 7.41667 17.5572V21.1656H3.75001C3.50689 21.1656 3.27374 21.0689 3.10183 20.8969C2.92992 20.7249 2.83334 20.4916 2.83334 20.2484V11.244C2.83419 11.001 2.93068 10.768 3.10193 10.5956L10.0548 3.64032C10.5716 3.1257 11.2709 2.83679 12 2.83679C12.7291 2.83679 13.4284 3.1257 13.9452 3.64032L20.8981 10.5983C21.0687 10.7701 21.1651 11.0019 21.1667 11.244V20.2484Z" fill="#646464"/>
</svg>
